<svg xmlns="http://www.w3.org/2000/svg" width="62.778" height="62.783" viewBox="0 0 62.778 62.783"><circle stroke="#bbb" stroke-width=".851" stroke-miterlimit="10" cx="31.389" cy="31.392" r="30.963" fill="none"/><path stroke="#bbb" stroke-width=".399" stroke-dasharray="0.7963,0.7963" d="M31.27 60.523c-16.081 0-29.163-13.082-29.163-29.164s13.082-29.167 29.163-29.167 29.164 13.085 29.164 29.167-13.083 29.164-29.164 29.164z" fill="none"/><path fill-rule="evenodd" clip-rule="evenodd" fill="#bbb" d="M17.347 45.571l-.141 1.569-.024.048-.854.854-.074.021-.036-.059.135-1.5-1.5.135-.059-.036.021-.075.854-.854.049-.023 1.568-.141.061.061zm-.18.522l-.083.244.024-.03h.038l.021-.214zm-.031.346l-.066.229.038-.01.008.004.02-.223zm-.062.685l.031-.359-.187.465-.036.084.192-.19zm-.236.236l-.012-.003-.023-.043.082-.283-.065.164-.122.303-.001.004.141-.142zm-.186.184l-.026-.005-.011-.04.103-.304-.095.233-.101.243-.002.006.132-.133zm-.132.133l-.002.002.002-.002zm-.042.043l-.014-.001-.019-.051h-.001l.001-.003.071-.231.18-.555.075-.23-.385.955-.021.227.113-.111zm-.058-.478l.124-.376-.117.291-.004.045-.003.04zm.059-.857l.002.001.002.004.017-.061-.021.056zm-1.454.106l1.367-.123.039-.246-.079.198-.054.03-.021-.049.025-.208.002-.014-.102.253-.049.032-.027-.039.034-.176-.074.202-.053.027-.033-.044.029-.173-.102.218-.031.005-.019-.053.021-.23-.132.293-.031.005c-.023-.005-.029-.007.004-.274l-.104.257-.022.026-.031.005-.02-.047h-.001l.001-.004.025-.188-.114.247-.031.006c-.022-.006-.027-.007-.011-.192l-.069.173-.045.031-.033-.034.001-.061-.029.073-.054.03-.021-.049.045-.109-.201.202zm.345-.344l-.001.045.029-.075-.028.03zm.17-.17l-.016.154.092-.23-.076.076zm.193-.194l-.028.029.011.045v.002l-.024.187.086-.208v-.001l.025-.036.04-.001.016.033-.031.248.106-.268.049-.031.033.041-.026.263c.038-.093.061-.214.12-.274l.042-.039.021.033-.03.173.102-.218.031-.005.017.052h.003l-.003.006-.022.151.077-.19.054-.03.021.049v.001l-.026.216.101-.25.049-.032.028.041-.052.303c.133-.338.141-.342.157-.352l.031-.006c.035.009.038.009-.107.535l.212-.508.003-.009h.002l.021-.027.03-.006.022.046-.115.337.146-.363.052-.031.024.046-.272.819.343-.848.054-.031.017.047.003.002-.009.022c-.02.098-.097.337-.294.938l.276-.685.052-.03.009.004.03-.324-1.477.134zm.229 1.174l-.142 1.567-.024.049-.854.855-.075.021-.035-.057.134-1.501-1.501.135-.058-.037.021-.074.854-.855.05-.024 1.568-.14.062.061zm-.166.349l-.236.799.03-.077.1-.245.061-.05.008.002.037-.429zm-.066.734l-.049.266h.016l.009.004.002-.02.022-.25zm-.042.469l.009-.096-.037.095-.022.052.05-.051zm-.096.095l-.023-.004-.015-.035.082-.449-.188.466-.084.209-.029.07.257-.257zm-.304.305l-.012-.002-.023-.046.265-.885-.477 1.18.247-.247zm-.193-.955l-.006.057-.001.01.054-.185-.047.118zm-.1 1.1l.203-.578-.193.473-.01.105zm.042-.462l.11-.33-.104.258-.002.031-.004.041zm-.041.609h-.014l-.002.015.016-.015zm-1.355-1.324l1.404-.127.007.001.01-.038-.009.006-.039.002-.016-.033.026-.257-.111.277-.054.031-.021-.048v-.001l.013-.278-.124.3-.001.003h-.001l-.023.035-.041.002-.016-.035.032-.223-.002.007-.118.262-.039.002-.017-.032.02-.293c-.131.329-.133.33-.151.34l-.03.005c-.025-.006-.031-.007.003-.258l-.097.241-.048.031-.029-.04.031-.196-.087.216-.054.031-.021-.049v-.001l.015-.105-.054.134-.023.026-.03.005-.026-.025-.062-.094-.042.105-.052.03-.022-.047.01-.024-.111.112zm.263-.264l.053.08.089-.222-.142.142zm.281-.28l-.014.101.059-.146-.045.045zm.164-.164l-.032.031.015.032-.031.196.088-.216.048-.032.03.039-.035.237.102-.257.023-.026.032-.005c.025.006.029.008.01.32l.001-.002c.123-.317.123-.317.145-.33l.032-.005.023.038-.031.222.097-.243.022-.025.031-.005.02.118-.012.215.129-.321.048-.031.03.038-.027.259.111-.28.051-.032.026.045-.086.317.079-.2.056-.129v-.005h.002l.055-.038.017.048.004.001-.008.019-.089.32-.142.489.349-.864.053-.03.02.047.002.001-.007.02-.09.278-.146.436.307-.764.023-.025.03-.005.018.047.004.001-.011.023-.168.518.182-.452.051-.031.011.003.012-.14-1.474.135z"/><path stroke="#bbb" stroke-width=".651" stroke-miterlimit="10" fill="none" d="M14.814 47.981l32.546-32.549"/><path fill="#bbb" d="M47.79 16.531l-1.558-1.559 3.275-1.674z"/><path fill-rule="evenodd" clip-rule="evenodd" fill="#bbb" d="M45.707 45.763l1.58.154.05.025.868.867.021.076-.059.036-1.512-.147.146 1.513-.034.058-.075-.021-.869-.868-.023-.05-.153-1.581.06-.062zm.526.186l.247.084-.029-.024-.003-.039-.215-.021zm.35.034l.231.068-.01-.039.004-.008-.225-.021zm.689.067l-.362-.035.471.192.086.037-.195-.194zm.241.24l-.003.012-.043.023-.286-.084.165.066.306.126.005.001-.144-.144zm.187.188l-.005.026-.04.011-.308-.106.235.097.245.104.006.002-.133-.134zm.136.135l.002.002-.002-.002zm.043.043l-.002.012-.051.02-.003-.001-.233-.074-.56-.185-.233-.078.965.396.229.022-.112-.112zm-.483.054l-.38-.129.293.121.047.004.04.004zm-.864-.067l.003-.001.004-.004-.062-.017.055.022zm.119 1.465l-.135-1.377-.247-.042.198.082.032.053-.049.021h-.002l-.209-.028-.014-.002.257.105.032.049-.039.026-.178-.035.205.076.027.054-.044.032-.176-.031.221.104.006.031-.054.019-.232-.022.297.134.006.032c-.006.023-.008.029-.277-.007l.261.108.025.022.005.032-.047.02v.001l-.004-.001-.19-.027.25.117.005.031c-.004.023-.005.028-.192.009l.175.072.033.045-.035.033-.061-.001.073.029.031.055-.049.021-.11-.045.205.205zm-.348-.348h.045l-.075-.031.03.031zm-.174-.174l.155.017-.232-.094.077.077zm-.196-.196l.029.03.046-.01h.002l.188.026-.21-.089h-.003l-.036-.025-.001-.041.033-.014.251.032-.271-.11-.031-.049.04-.032.266.027c-.095-.039-.218-.062-.277-.122l-.039-.042.033-.021.174.031-.22-.104-.005-.031.051-.017.001-.002.006.003.151.023-.191-.079-.031-.053.05-.021.219.028-.251-.104-.033-.049.04-.028.307.055c-.343-.138-.345-.145-.356-.161l-.005-.032c.008-.035.009-.038.539.111l-.514-.216-.009-.003.001-.002-.028-.021-.006-.032.046-.021.342.119-.366-.15-.032-.052.046-.024.828.28-.856-.35-.031-.055.047-.017.002-.004.021.01c.099.022.342.102.948.303l-.691-.282-.032-.053.005-.01-.328-.032.141 1.482zm1.18-.22l1.581.153.05.025.869.867.02.076-.057.036-1.514-.147.147 1.513-.036.059-.074-.021-.869-.868-.024-.05-.154-1.582.061-.061zm.354.168l.806.245-.076-.031-.248-.101-.052-.062.003-.009-.433-.042zm.739.073l.269.05v-.016l.004-.008-.02-.001-.253-.025zm.474.046l-.098-.009.096.038.053.023-.051-.052zm.097.097l-.005.024-.034.014-.453-.086.471.193.212.087.07.031-.261-.263zm.309.308l-.003.013-.044.022-.896-.271 1.194.488-.251-.252zm-.962.189l.059.005.009.001-.186-.055.118.049zm1.11.108l-.584-.208.479.198.105.01zm-.466-.045l-.333-.114.262.107.032.003.039.004zm.614.045l.001.013h-.001l.016.003-.016-.016zm-1.324 1.357l-.138-1.417.001-.005-.038-.01.008.008.001.04-.033.016-.259-.031.28.115.031.054-.048.021h-.001l-.28-.014.304.127h.003v.001l.036.024.001.041-.034.016-.225-.034.007.003.265.12.002.04-.032.017-.295-.021c.332.134.333.137.344.154l.005.031c-.005.025-.007.031-.26-.005l.243.1.032.049-.04.028-.197-.033.218.09.032.054-.05.021-.107-.017.137.057.025.021.006.031-.025.027-.095.06.106.044.032.054-.05.021-.023-.01.111.112zm-.268-.268l.081-.053-.224-.092.143.145zm-.284-.285l.102.016-.146-.062.044.046zm-.166-.166l.032.032.032-.016.197.032-.219-.09-.031-.048.038-.029.238.035-.26-.105-.026-.022-.005-.032c.006-.025.007-.03.322-.007h-.003c-.32-.127-.32-.127-.332-.149l-.006-.031.038-.024.224.033-.245-.101-.025-.022-.005-.031.119-.019.216.013-.323-.132-.032-.048.037-.03.261.03c-.093-.039-.179-.099-.282-.115l-.031-.052.044-.026.319.089-.2-.083-.131-.056-.006-.001v-.001l-.038-.056.049-.016v-.004l.019.008.323.092.494.146-.872-.357-.031-.054.048-.019v-.003l.021.008.28.092.44.15-.771-.315-.026-.023-.006-.031.049-.017.001-.004.022.01.524.175-.457-.187-.031-.052.003-.01-.14-.014.144 1.487z"/><path stroke="#bbb" stroke-width=".651" stroke-miterlimit="10" fill="none" d="M48.154 48.333l-32.898-32.901"/><path fill="#bbb" d="M16.213 14.863l-1.559 1.559-1.711-3.313zM17.475 32.178c2.304-.435 3.572-2.175 3.75-4.029.225-2.182-1.788-2.767-3.723-2.472-2.645.402-4.623 2.237-4.967 4.186-.357 2.048 1.335 2.725 2.254 2.167 0 0 .626 1.731-.891 1.934-1.462.195-3.32-1.112-2.596-3.857.741-2.734 3.545-4.918 6.638-5.487 2.66-.475 5.262.216 5.05 2.939-.231 2.879-2.721 4.849-5.587 5.438-.562 5.175-2.352 7.44-4.737 6.885-1.777-.413-2.575-3.177-.938-4.877 1.34-1.361 2.491.248 2.491.248-2.288 1.087-2.529 3.802-1.232 4.078 1.726.351 3.031-2.526 2.922-8.085-.049-2.433.097-3.766.689-4.539.661-.881 1.925-.823 1.866-.2-.027.004-.774-.51-.897 3.901-.018.615-.051 1.22-.092 1.77zM48.725 29.104c-.798.513-1.628.89-2.473 1.146.046.181.12.362.227.513.482-.046.98 0 1.463.166.83.271.407 1.221-.829 1.161-.377-.015-.724-.105-1.026-.227-.829.589-1.417 1.584-1.553 2.7-.228 1.659.512 3.062 2.247 3.062 1.312 0 3.077-1.071 3.589-2.503h.016c.286-.106.513.105.332.573-.694 1.78-2.821 2.806-4.872 2.806-2.459 0-3.785-1.72-3.438-3.906.24-1.554 1.298-2.821 2.639-3.439-.15-.166-.286-.331-.407-.527-1.869.302-3.65.151-4.795-.181-2.022-.588-1.042-2.534-1.042-2.534 1.086.815 3.273 1.448 5.476 1.479-.015-.257 0-.528.061-.814.558-2.73 3.694-3.53 5.173-2.896 1.218.525 1.324 2.064-.788 3.421zm-2.548.166c.905-.136 1.765-.392 2.489-.83 1.16-.678 1.266-1.87.407-2.292-.891-.422-2.384.347-2.775 2.232-.062.317-.121.619-.121.89z"/><path stroke="#bbb" stroke-width=".267" stroke-miterlimit="10" d="M25.305 46.838l.376-.02v-2.682l-.385-.02.005-.041h1.784l-.013.648-.048-.004-.023-.58h-1.24v1.289h.863l.036-.373.049.004v.777l-.049-.004-.036-.34h-.863v1.321h1.308l.021-.596.048.004.009.657h-1.845l.003-.04zM28.534 44.076l2.01 2.678v-2.618l-.384-.02.004-.041h.845l-.004.041-.381.02v2.742h-.076l-2.018-2.682v2.622l.429.02-.004.041h-.9l.004-.041.393-.02v-2.682l-.404-.02.004-.041h.482zM33.204 46.878h-.112l-1.101-2.742-.321-.02.005-.041h.86l-.004.041-.452.02 1.069 2.67h.008l1.049-2.67-.393-.02.004-.041h.812l-.004.041-.341.02-1.079 2.742zM35.951 46.878l.004-.041.408-.02v-1.157l-.932-1.525-.321-.02.005-.041h.812l-.004.041-.396.02.88 1.441h.009l.912-1.441-.372-.02.005-.041h.771l-.004.041-.315.02-.97 1.533v1.149l.381.02-.005.041h-.868zM29.822 41.368l.004-.032.332-.016v-2.146l-.313-.016.003-.032h.884c.395 0 .628.247.628.58 0 .24-.096.455-.365.528.256.07.413.279.413.547 0 .304-.163.586-.691.586h-.895zm.401-2.187v1.028h.557c.157 0 .247-.029.334-.07.108-.1.183-.212.183-.429 0-.295-.205-.529-.577-.529h-.497zm0 1.085v1.038c.111.016.288.016.461.016.285 0 .452-.067.577-.185.057-.097.086-.173.083-.353-.003-.311-.234-.516-.564-.516h-.557zM31.863 41.336l.301-.016v-2.146l-.308-.016.003-.032h1.429l-.009.519-.039-.003-.02-.464h-.992v1.031h.691l.028-.298.039.003v.621l-.039-.003-.027-.272h-.691v1.057h1.047l.016-.477.039.003.007.525h-1.478l.003-.032z" fill="none"/><path fill="#bbb" d="M31.321 15.433c1.081 0 2.002.381 2.763 1.145s1.141 1.685 1.141 2.766c0 1.076-.38 1.996-1.141 2.759s-1.682 1.145-2.763 1.145c-1.076 0-1.995-.381-2.759-1.145-.762-.763-1.144-1.683-1.144-2.759 0-1.081.382-2.003 1.144-2.766.764-.764 1.683-1.145 2.759-1.145zm-2.282 1.628c-.63.63-.945 1.392-.945 2.283s.315 1.651.945 2.279c.631.628 1.392.942 2.282.942.892 0 1.652-.314 2.283-.942.63-.628.945-1.388.945-2.279s-.315-1.652-.945-2.283c-.631-.63-1.392-.945-2.283-.945-.89-.001-1.651.314-2.282.945zM31.214 12.424c.032-.057.103-.048.158-.057l-.004.592-.155.016c-.01-.183-.02-.369.001-.551zM30.59 12.458c.161.056.204.272.288.408.062.075-.112.162-.14.077-.089-.128-.165-.266-.223-.411l.075-.074zM31.924 12.492c.065-.031.11-.012.137.061-.062.157-.15.303-.255.435l-.108-.024c-.015-.181.14-.324.226-.472zM29.369 14.021c.202-.274.375-.583.604-.829.811-.022 1.621.008 2.432.008.083.011.2-.027.245.068.193.283.393.562.567.855-.032.163-.197.265-.291.396-.562.616-1.096 1.256-1.671 1.858-.618-.667-1.187-1.381-1.788-2.065-.061-.085-.198-.185-.098-.291zm.86-.624c.109.183.223.364.344.54l.463-.534-.807-.006zm1.294.008l.46.542c.122-.174.24-.352.353-.534l-.813-.008zm-1.517.085c-.109.174-.229.342-.352.507l.695.01-.343-.517zm.8.52l.939.007-.465-.55-.474.543zm1.398.013l.692.006-.353-.517-.339.511zm-2.512.207c.422.485.83.981 1.259 1.462-.146-.49-.323-.97-.48-1.457l-.779-.005zm1.017.006c.188.546.354 1.099.553 1.64.188-.543.383-1.085.579-1.626l-1.132-.014zm1.367.013l-.525 1.479 1.306-1.472-.781-.007z"/><path fill-rule="evenodd" clip-rule="evenodd" fill="#bbb" d="M30.973 50.087l.038-.025v-.017l.013-.012.013-.013h.013l.028-.041h.013l.038-.038.003-.025.025-.025.037-.003.017.028.025.025.024.003.055.051.012.013.066.066v.037l-.038.016v.013l-.028.014-.012.012-.025.025-.041.041-.025.038-.013.013-.028.028-.025-.022-.041-.031-.013-.013-.025-.025-.066-.079-.025-.003-.013-.013-.002-.038zM33.187 51.04v-.025l.016-.016.013-.013.037-.038.041-.05h.013l.013-.016.028-.067h.013l.013-.062h.013v-.041h.013v-.042h.013v-.221l-.013-.051-.013-.003-.013-.041-.013-.025-.028-.075-.013-.003-.025-.038-.025-.028-.003-.022-.076-.057-.016-.013-.013-.025-.065-.028v-.013h-.026v-.013h-.024v-.012h-.028v-.013h-.038v-.014l-.054-.003v-.013h-.054v-.01h-.23l-.004.01-.053.013-.042.017-.05.013-.003.012-.025.013h-.022l-.019.025-.037.016-.014.025-.038.025h-.028v.028l-.025.025-.013.013-.041.025-.025.025v.016l-.053.037-.013.028-.013.013-.013.013-.013.013-.028.013v.016l-.013.013-.025.025-.013.013-.028.028-.013.013-.024.025-.014.013-.028.028-.013.013-.013.013-.012.013-.042.025-.013.025-.078.056-.038.051-.013.013-.028.029-.013.013-.013.013-.013.012-.041.025v.016l-.013.013-.013.014-.013.012-.028.013-.013.028-.013.013-.013.013-.013.013-.028.013v.016l-.013.013-.038.038-.013.013h-.016v.016l-.012.013-.025.024-.014.014-.04.041-.013.012-.016.013-.051.042-.013.013-.066.05-.041.028h-.022l-.016.025-.024.013-.029.013-.025.013-.037.016-.029.013-.037.013-.041.013-.066.013-.113.003-.004.01h-.116v-.01l-.12-.003-.066-.013v-.013h-.051v-.013h-.041v-.013l-.104-.028v-.013h-.028v-.013h-.025l-.016-.025-.051-.016v-.013h-.024l-.013-.025-.016-.013-.038-.012v-.025l.028-.029.013-.013.019-.003.007-.021h-.01l-.016.024-.041.039h-.029l-.012-.026h-.022l-.016-.016-.025-.024-.016-.039-.025-.012-.013-.013-.013-.016-.025-.038-.016-.025-.025-.041-.012-.025-.014-.028-.013-.025-.016-.038-.013-.041-.013-.037-.013-.054-.012-.079v-.174l.012-.089h.013v-.054h.013v-.037l.013-.004.028-.101.014-.028h.012v-.025l.025-.016v-.025l.028-.038.025-.016v-.025l.054-.041.051-.062.013-.014.028-.028.038-.013v-.012l.016-.014.037-.027h.022l.02-.025.025-.013.024-.013.025-.013.063-.016.003-.013.028-.013.041-.013.048-.013.053-.013.079-.003.004-.01h.274v.01l.079.003.054.013.037.013v.013h.042v.013h.024v.013l.028.013.035.003.016.025h.025l.016.025h.022l.016.025.025.003.016.012.013.025h.025l.013.02-.013.021-.013.014-.066.053-.038.039-.003.024-.013.013-.025.013v.016l-.012.013-.014.013-.019.013-.022-.013-.013-.025-.04-.028h-.023l-.016-.025h-.024v-.012l-.028-.013h-.025v-.014l-.041-.003-.063-.013v-.01h-.224l-.004.01-.062.013-.114.029-.003.012-.028.013-.038.025-.024.003-.055.051-.041.025v.016l-.024.009v.017l-.013.013-.025.013-.004.024-.025.016v.026l-.024.016v.024h-.013l-.003.038h-.013l-.013.066h-.013v.079h-.013v.143l.013.003.013.066.013.041.013.038.028.053v.022l.024.016.025.038.013.016.017.038.054.047-.025.02-.004.025-.013.013-.041.041-.013.012-.037.025v.014h.009l.028-.039.013-.012.029-.028.012-.013.042-.041.019-.01.019.025h.025l.066.041v.013h.025v.013h.028v.012h.037v.014l.038.012.054.014.12.003v.009l.025-.009.13-.003.078-.025.004-.014h.034l.02-.024.024-.013.025-.016.017-.013h.019l.031-.038.016-.013.039-.016.024-.038.013-.013.028-.028.013-.013.025-.025.013-.013.028-.028.013-.013.038-.037.013-.013.016-.017.013-.013.065-.053v-.014l.079-.065.038-.051.013-.013.028-.028.013-.013.013-.013.013-.013.041-.025.025-.041h.022l.057-.054.024-.038.013-.013.017-.016.013-.012.038-.039.012-.012.017-.016.013-.013.037-.038.013-.013.016-.016.014-.013.037-.038.013-.013.016-.016.014-.013.037-.037.01-.016.016-.017.013-.013.025-.025.013-.012.019-.013.035.013v-.01l-.013-.003v-.026l.038-.028.028-.025h.021l.003-.015.017-.013h.019l.02-.025h.021l.02-.025.025-.013.088-.028.003-.013.038-.013.038-.013.053-.013.076-.003.003-.01h.266v.01l.079.003.063.013.003.013h.037v.013h.042v.013l.062.013v.013l.079.028v.013h.028v.013l.063.028.016.025h.025l.025.038h.016l.013.024.025.004.024.024.025.028.017.039.025.012.012.016.028.038.025.038.014.025.012.024.028.058.013.024.013.039.013.037.013.045.013.075v.24l-.013.075-.013.055h-.013v.037h-.013v.028h-.013l-.016.066h-.013v.025h-.012v.025l-.026.016v.022l-.025.016-.003.025-.013.016-.024.013v.024l-.025.025-.029.029-.012.012-.025.025-.013.014-.016.013-.032.012-.006-.012h-.01l-.003.012.013.007-.016.021h-.02l-.019.025-.063.028-.003.013-.025.013-.024.013-.028.013-.026.013-.041.016-.038.013-.037.013-.055.013-.053.013-.127.003-.003.01h-.107v-.01l-.129-.003-.054-.013v-.013h-.054v-.013l-.063-.013-.003-.013-.038-.003v-.013h-.025v-.013h-.024l-.017-.025h-.025v-.013l-.041-.028h-.025l-.024-.038-.016-.012-.022-.004-.016-.012-.025-.039h-.016l-.013-.013-.013-.024-.025-.003-.013-.014-.013-.012-.013-.014-.028-.027-.012-.013-.026-.025-.013-.013-.016-.038.028-.016.026-.038.012-.013.016-.013.047-.04.07-.055.013-.024h.028l.025.024.013.013.024.025.017.017.025.024.013.013.024.041h.025l.054.066.017.013h.021l.028.038.025.003v.013h.025v.013h.025v.012h.028v.014l.038.012.044.014.129.003v.009l.025-.009.181-.017.006-.012.037-.014.029-.012.06-.013.003-.013.025-.016.017-.013.024-.013.044.006z"/></svg>