<svg xmlns="http://www.w3.org/2000/svg" width="65" height="65.325" viewBox="0 0 65 65.325"><path fill="#FF6A5D" d="M51.099 5.34c4.019 3.09 7.024 7.068 9.014 11.934 1.987 4.868 2.432 9.67 1.333 14.409-.254 1.609-.869 3.449-1.841 5.522-.974 2.075-1.904 3.936-2.793 5.586s-1.714 3.555-2.476 5.713-1.143 4.062-1.143 5.713.464 3.532 1.396 5.649c.254.592.254 1.1 0 1.523-.254.422-.593.719-1.016.889-.425.168-4.338.676-11.743 1.523-7.407.846-11.575 1.184-12.505 1.016-1.016-.086-1.65-.508-1.904-1.27-1.27-3.641-4.741-4.994-10.41-4.062-1.27.254-2.583-.021-3.936-.825-1.355-.806-2.075-1.882-2.158-3.237 0-.254.02-.592.063-1.016.042-.422.042-.781 0-1.079-.043-.296-.149-.485-.317-.571-.847-.338-1.503-.973-1.968-1.904-.466-.93-.444-2.031.063-3.301-.508-1.016-.635-2.115-.381-3.301-1.101-.254-2.031-.592-2.793-1.016-1.355-.762-2.158-1.777-2.412-3.047s.083-2.285 1.016-3.047c.845-.676 1.565-1.416 2.158-2.222.591-.803 1.036-1.543 1.333-2.222.295-.676.486-1.396.571-2.158.083-.762.127-1.375.127-1.841 0-.464-.022-.972-.063-1.523-.043-.549-.063-.867-.063-.952-.508-5.416.718-10.156 3.682-14.219 2.961-4.062 6.77-7.002 11.426-8.823 4.654-1.819 9.605-2.644 14.854-2.476 4.57.001 8.865 1.546 12.886 4.635zm3.11 7.681c-3.98-5.416-9.268-8.421-15.869-9.014-2.285-.254-4.677-.168-7.173.254-2.498.424-4.973 1.206-7.427 2.349-2.456 1.143-4.634 2.583-6.538 4.316-1.904 1.736-3.408 3.936-4.507 6.602-1.101 2.666-1.482 5.566-1.143 8.696.422 5.417-1.228 9.818-4.951 13.203-.339.34-.297.594.127.762 1.607.678 2.75 1.059 3.428 1.143.845.17 1.438.467 1.777.889.337.424.337.975 0 1.65-.339.848-.361 1.82-.063 2.92.295 1.102.19 1.947-.317 2.539l.127.254c.591.17 1.206.742 1.841 1.714.635.974.825 2.138.571 3.491 0 .678.254 1.123.762 1.333.508.212 1.016.276 1.523.19 7.109-1.1 11.721.762 13.838 5.586 1.016-.086 1.988-.19 2.92-.317.93-.127 1.968-.254 3.11-.381s2.369-.254 3.682-.381c1.311-.127 2.603-.276 3.872-.444 1.27-.17 2.518-.317 3.745-.444 1.226-.127 2.305-.276 3.237-.444-.593-2.201-.847-4.168-.762-5.903.083-1.733.527-3.682 1.333-5.84.804-2.158 1.629-4.062 2.476-5.713.845-1.65 1.733-3.532 2.666-5.649.931-2.115 1.565-4.019 1.904-5.713 1.185-6.35-.211-12.231-4.189-17.648zm-30.85 11.362c.168.381.168.762 0 1.143-.17.381-.508.571-1.016.571-1.016 0-2.412-.083-4.189-.254-.508 0-.847-.21-1.016-.635-.17-.422-.17-.803 0-1.143.168-.337.508-.508 1.016-.508 1.777.17 3.174.254 4.189.254.509.001.846.191 1.016.572zm5.713-8.823c-.17.339-.488.53-.952.571-.466.043-.825-.147-1.079-.571-.932-1.438-1.694-2.454-2.285-3.047-.254-.422-.317-.825-.19-1.206s.381-.655.762-.825c.381-.168.74-.042 1.079.381.676.762 1.565 1.948 2.666 3.555.168.423.168.804-.001 1.142zm9.077.952c3.174.635 5.522 2.265 7.046 4.888 1.523 2.709 1.692 5.502.508 8.379-.339.847-1.059 1.99-2.158 3.428-.932 1.355-1.503 2.244-1.714 2.666-.212.424-.212.762 0 1.016.21.254.317.551.317.889 0 2.793-.085 4.316-.254 4.57-.17.424-.424.656-.762.698-.339.044-1.355.022-3.047-.063-2.625-.084-5.164-.127-7.617-.127-.847 0-1.355-.422-1.523-1.27-.339-1.438-.508-2.92-.508-4.443 0-.168.063-.4.19-.698.127-.296.147-.655.063-1.079-.085-.422-.339-1.099-.762-2.031-.084-.17-.338-.615-.76-1.335-.424-.718-.72-1.29-.889-1.714-1.016-2.2-1.228-4.485-.635-6.855.591-2.369 1.946-4.189 4.062-5.459 2.455-1.607 5.27-2.095 8.443-1.46zm3.872 5.776c-1.355-1.438-2.942-2.327-4.761-2.666-1.821-.337-3.618-.042-5.396.889-3.979 2.371-4.443 5.967-1.396 10.791.845 1.355 1.353 2.709 1.523 4.062.676-.084 1.523-.084 2.539 0-.17-1.692-.085-3.301.254-4.824-.424-.845-.762-1.438-1.016-1.777-.339-.591-.424-1.079-.254-1.46.168-.381.486-.613.952-.698.464-.083.825.043 1.079.381.254.339.508.762.762 1.27l.889-.889c.422-.337.825-.444 1.206-.317s.655.424.825.889c.168.466.083.869-.254 1.206l-1.777 1.65v.254c-.17.762-.276 1.418-.317 1.968-.043.551-.043 1.079 0 1.587.042.508.063.805.063.889.591 0 1.143.043 1.65.127.591-1.861 1.65-3.638 3.174-5.332 2.37-2.541 2.455-5.207.255-8zm-3.173 16.631c-2.456-.254-4.783-.381-6.982-.381 0 .424.042.805.127 1.143 2.793 0 5.078.043 6.855.127v-.889zm3.808-23.486c-.424 0-.762-.19-1.016-.571s-.254-.74 0-1.079l1.904-3.047c.254-.337.571-.508.952-.508s.698.19.952.571.254.784 0 1.206c-.339.593-.932 1.567-1.777 2.92-.253.339-.592.508-1.015.508zm5.65 8.95c-.298-.295-.402-.655-.317-1.079.083-.422.337-.718.762-.889 1.27-.337 2.539-.803 3.809-1.396.423-.168.825-.127 1.206.127s.571.571.571.952-.212.698-.635.952c-1.44.678-2.878 1.228-4.316 1.65-.426.086-.784-.02-1.08-.317z"/></svg>