<svg xmlns="http://www.w3.org/2000/svg" width="333.854" height="54.736" viewBox="0 0 333.854 54.736"><path d="M61.86 20.648c-.062-.031-.499-.779-.499-.874l.031-.28c0-.251-.437-1.093-.437-1.78 0-.187.156-.344.156-.405l-.062-.562c0-2.154.438-4.276.812-6.212l.125-.125v-.78c.281 0 .093-.438.25-.562h.156c.125-.342.125-.749.281-1.091l-.031-.188c.187-.031.219-.499.281-.75.499-.123.343-.686.562-.936.375-.374.468-.842.811-1.248.188-.25.5-.469.656-.779l.125-.531c.25-.375.78-.594 1.093-.938.093-.123.031-.311.156-.403.062-.126.28-.064.374-.158.218-.154.281-.469.406-.529.157-.095.406-.063.562-.125.938-.344 1.873-.594 2.841-.812 0 .062.031.126.093.126 0-.064.094-.126.157-.126.155 0 .53.218.686.279l.656.095.281.281c.656 0 1.905 1.031 1.905 1.062l-.032.155c.219.188.5.312.688.531.125.155.062.343.156.437.031.03.218.063.281.126.187.188.093.654.53 1.061.312 1.155.375 2.402.375 3.59 0 1.25-.25 2.466-.25 3.683l-.124.157c.031.124.124.25.124.375-.281.28-.406.686-.406.812l.125.188c-.062.155-.218.312-.218.499 0 .124.125.155.218.155-.094.312-.437.251-.53.655-.22 1.124-.75 2.561-1.093 3.246-.25.47-.562 1.812-.781 2.404-.156.406-.842 2.217-.842 2.59.187-.311.218-.342.468-.56l-.031-.218.062-.064.78-1.092c.062-.126.156-.281.25-.406l-.031-.188c0-.156.375-.218.438-.344l-.032-.186c0-.188.375-.313.437-.625.032-.312 1.499-2.029 1.499-2.029l-.031-.188c0-.218.593-.841.686-.997l-.031-.188c0-.218.437-.499.562-.655.249-.312.186-.779.437-1.061l.25-.126c.25-.312.219-.593.562-.937l-.032-.188.438-.437-.032-.281c.187-.28.406-.062.406-.593.094-.094.25-.155.281-.281l-.031-.156c0-.093.749-.749.842-.904l-.031-.188c0-.343.375-.438.562-.623l.156-.407.281-.125.093-.406.281-.124c.094-.125.031-.343.156-.437.499-.5 1.466-1.468 1.499-1.593.093-.437 1.217-1.154 1.217-1.311 0-.062.437-.25.5-.312.219-.188.312-.468.531-.688l.218.033c.094 0 .156-.221.219-.283.156-.156 1.155-.655 1.061-.655l.157-.093c0-.219 1.154-.842 1.373-.968l.375-.095.312-.279c.218-.094.531-.062.78-.094.375-.219.468-.219.906-.219 1.31 0 2.31.344 3.058 1.311.156.094.406.375.499.499l-.031.157c0 .279.438.937.438 1.498 0 .093-.031.219-.062.312.062 0 .124.063.124.126-.031.062-.031.217-.031.374 0 .595.155.812.155 1.218 0 .123-.187.062-.187.436 0 .781-.531 1.938-1.03 2.779-.062 0-.125 0-.125.063l.062.093c-.157.093-.125.719-.22.78-.094.062-.28.031-.342.124v.282c0 .124 0 .218-.031.28-.532.281-.469 1.029-.875 1.404.594.469 1.875.688 2.623.967.967 0 1.998 1.812 1.998 1.78-.374.345-.936.374-1.436.374l-.749-.029c0-.221.312-.281.593-.281l.437.031c0-.189.157-.189.157-.312 0-.531-1.343-1.593-1.78-1.593-.281 0-1.529-.468-1.873-.593-1.217.844-2.31 3.091-2.841 3.091-.406.593-.687 1.218-1.404 1.467 0 .156-.156.406-.281.529l-.218-.03c-.094 0-.031.188-.094.25-.218.219-.375.188-.531.468-.094.188-.499.22-.655.376-.157.155-.188.437-.469.437-.188.188-1.467.78-1.467.903-.062.127-.593.313-.718.345l-.312.095c-.063.061-.156.061-.249.061h-.188c-.406.251-.998.281-1.342.594h-.625c-.124.094-.343.127-.562.127-.125 0-.25 0-.344-.033-.28.033-.561.064-.842.064-.905 0-1.499-.938-1.499-1.283 0-.092.031-.186.062-.279-.031-.125-.062-.219-.062-.344 0-.374.531-.967.594-1.467.124-.875 1.591-2.153 1.498-2.061.375-.375.937-1.093 1.467-1.093.312-.53 1.373-1.029 2.186-1.247.093-.094.405-.346.53-.376.906-.155 1.78-.719 2.217-.719s.687-.186 1.061-.218l.25.032c.437-.156 1.624-.156 2.092-.156.249-.188.125-.438.249-.657.313-.436.78-.967 1.093-1.559l-.031-.189c0-.279.218-.092.312-.279.5-1.03.938-2.061 1.437-3.123l.031-.156c.375-.186.594-2.715.594-3.121 0-.842-.469-2.184-1.468-2.184l-1.029-.062c-.532 0-1.218.25-1.717.594-.125.186-.937.497-1.249.717-.125.094-.53.531-.655.562-.312.311-.78.498-1.155.779-2.373 1.811-3.714 3.746-3.621 3.746l-.187.031.031.188c0 .188-.188.125-.281.218-.188.251.062.22-.407.531-.031.03-.406.593-.406.562 0 .469-.467.688-.655 1.062l-.281.562c-.031.094-.062.344-.156.375l-.156-.031c-.188 0-.156.562-.467.562l.062.062c0 .155-.25.405-.375.5-.031.531-.125.562-.562.937l.032.188c0 .125-.281.155-.281.218l.031.188c0 .063-.094.187-.125.251l-.031.092c-.156 0-.218.438-.281.562-1.093 1.094-.937 1.998-1.748 2.686 0 .374-.405.467-.405.529-.156.406-.125.875-.687.938-.063.625-.718 1.217-.937 1.779l-.282.249c-.062.126-.031.282-.125.406-.499.718-.967 1.592-1.499 2.278-.125.156-.093.688-.25.904-.094.188-.344.219-.344.471v.062s-.312.437-.593 1.03c0 .061-.468.562-.53.873-.125.531-1.186 2.28-1.218 2.653l-.406.687c-.125.188-.063.469-.157.688-.529.531-.842 1.342-1.155 2.029-.718.719-1.467 2.622-2.091 3.59l-.062.125.031.124c-.905.47-.531 1.687-1.748 1.687-.343 0-1.03-.187-1.03-.623 0-.439.187-.812.25-1.219l-.125-.094c0-.562 1.03-1.718 1.249-2.404l-.032-.248c0-.188.25-.188.281-.283l1.062-2.277.093-.126c.157-.28.125-.842.313-1.092 0 0 .561-.936.561-1.436l-.031-.188c.999-.687 2.591-5.743 2.81-5.838.125-.344.125-.749.282-1.093.155-.154.78-1.904.842-1.904.125 0 1.249-3.621 1.186-3.184.157-1.188.375-1.279.531-1.779.281-.873.656-2.529.656-2.403l.312-.749-.063-.53c0-.063 0-.157.032-.22.53-.312.625-3.558.625-4.245 0-1.093-.188-2.216-.625-3.559-.156-.468-.812-.656-.937-1.374l-.156.032c-.375 0-.312-.374-.656-.437-.25-.031-.593-.312-.686-.53-.687.154-1.561.154-2.154.53-.625.404-1.342.281-1.905.966-.063.095-.031.407-.188.407l-.156-.031c-.218 0-1.966 2.341-2.216 3.371-.905.686-.937 2.061-1.217 2.715-.594.657-.187 1.875-.781 2.28.062.094.094.218.094.343 0 .438-.312.75-.375 1.155-.124.874-.218 1.935-.218 2.778l.062.312s-.125.218-.125.405c0 .124.125.219.125.405l-.125.25.125.156-.125.406.125.343c0 .062-.093.155-.125.188l.125.53c.032.312.218 1.562.624 1.562m.778.774v-.031m19.541-5.68c0 .156-.999.498-1.092.688-.094.218-.125.094-.281.186.031 0-.842.844-.842.906 0 0-1.124.874-1.312 1.748h-.125c-.343.5-.531 1.219-.531 1.812 0 .437.25 1.435.812 1.435 1.437 0 2.873-.405 4.027-1.279.25-.219.437-.375.718-.561.093-.47.531-.407.655-.562.25-.344-.031-.156.469-.562.406 0 1.374-1.468 1.53-1.654.405-.562 1.03-1.094 1.31-1.53l.157-.468c.437 0 1.312-1.467 1.436-1.811.187-.187.125-.156.187-.374-.156-.032-.344-.062-.499-.062-.688 0-1.717.312-1.874.312h-.375c-.936 0-2.778 1-3.964 1.592l-.406.062v.122zm28.658 10.645c-.373.217-.467.531-.779.748-.219.188-.5.282-.75.438l-1.373 1.247c-.375.313-1.936.938-2.404 1.875l-.436.125c-.312.124-.781 1-1.218 1l-1.062.436c-1.061.467-2.248 1.654-3.403 1.654-.031.03-.125.219-.187.219-.562 0-.468-.344-.968-.344-.125 0-1.373-.968-1.373-1.218l.063-.062c-.157-.312-.25-.655-.25-.999 0-.748.374-1.311.718-2.342.438-.967.875-1.934 1.561-2.747l.75-.903c.5-.625 1.217-1.124 1.654-1.781-.968-.061-1.342-.592-2.154-.936-.53.688-1.373 1.435-1.997 2.122l-1.343 1.468c-.062.282-.936.656-1.187 1.25-.499.029-.031.686-.842.748v.156c-.063.094-.282.062-.406.188l-.125.279c-.812.813-1.749 1.468-2.686 2.154-.28.562-.374.282-.53.469-.219.25-.188.655-.594.655.125.031-.218-.03-.562.376-.312.344-.75.843-1.405.873 0 .531-1.249.469-1.592.562-.312.156-.687.312-1.093.312-.249 0-.717-.095-.999-.125l-.187.062c-.219 0-.749-.687-.905-.874-.063-.281-.094-.529-.094-.811s.062-.688.406-.688c.406 0 .718.438.812.78.312 1.062 1.248.624 1.685.812.812-.125 1.591-.561 2.217-.656.219-.031 1.342-1.155 1.967-1.684.468-.375 1.029-.688 1.373-1.188.281-.156.875-.281.875-.688 0-.218 1.03-.811 1.249-.998l.281-.468 1.124-1.062c.593-.625 1.217-1.468 1.748-1.905 1.093-.905 1.28-1.686 2.341-2.435-.281-.687-.405-1.403-.405-2.121 0-.656.218-1.717.468-1.717v-.309c.5-.375.655-1 .905-1.186l.437-.156c.187-.096.592-.626 1.279-.626.062 0 1.437.219 1.748.626l-.031.124.062.499c0 .905-.935 1-.935 1.467 0 .312-1.063 1.124-1.063 1.217l.031.221c0 .156-.687.373-.687 1.341 0 .749.375.78.375 1.031l-.031.093c.187-.031.375-.031.562-.031.813 0 1.685.249 2.465.468-.062.438 0 .78-.467.938v.154c0 .094-.812 1.405-1.344 1.749l-.156.593-.967 1.498c-.438.719-.531 1.622-.999 2.311-.125.188-.625 1.717-.625 1.936 0 .248.063.624.405.624.907 0 1.437-.532 2.123-1.03.312-.219.781-.281 1.094-.531.469-.374 1.092-.654 1.623-.967.031-.094.094-.344.219-.344l.156.062.686-.469c.469-.342.812-.967 1.312-1.124l.188-.062c0-.373.405-.278.593-.404.125-.094.094-.312.25-.312l.219.032c.188-.251.779-.562.779-.718v-.094c0-.064.72-.438 1.093-.812h-.312l.187-.063c0-.344.407-.279.593-.406.158-.092.438-.562.845-.654l.187-.156c0-.188.28-.281.375-.438v.219c.156-.032.187-.312.404-.312.406 0 1.093-1.188 1.438-1.188.406 0 .124-.311.468-.311h.125c0-.467.187-.312.374-.594v.75c-.687.154-.374.375-.592.594-.188.188-.531.248-.75.436s-.375.437-.594.625c-.406.312-.905.562-1.373.78-.126.496-.282.435-.657.653zm-9.77-8.053c-.156.343-.312 1.061-.312 1.279 0 .094.032.188.157.219.687-.905 1.375-1.467 1.529-2.684-.094-.032-.281-.095-.375-.095-.406 0-.717.562-.717.905l.031.219c-.094.062-.25.062-.313.157zm21.044 5.15c-.312 0-1.094 1.81-1.344 2.091-.062.095-.094-.062-.156.156-.154.499-3.558 3.152-4.182 3.59-.126.094-.281.312-.407.312l-.218-.031c-.655.968-2.029 1.436-2.966 1.436-.655 0-1.248-.404-1.812-.687-.311-.156-.903-.094-.903-.656v-.155l-.157-.063c-.094-.248-.094-.562-.094-.842 0-.843.281-1.469.688-2.466.094-.188.625-.594.905-.905.406-.406.718-.999 1.187-1.343.219-.188.562-.249.749-.437.25-.218-.031-.313.468-.313.125-.093.125-.218.312-.311.249-.155.594-.155.874-.282.188-.094.343-.311.562-.405.719-.406 1.717-.468 2.529-.468l1.404.188.312-.064c.312 0 1.062.032 1.342.156.219.096.156.438.623.438l.284 1.061zm-1.032-.156c-.842-.437-1.404-1.344-2.716-1.344-.343.469-.562.25-.905.438l-.281.313c-.156.093-.438 0-.623.125-.156.093-.438.591-.594.748-.655.656-1.279 1.093-1.654 1.967-.438.156-1.779 2.685-1.779 4.183.155.125.374.187.592.187 1.406 0 3.621-1.871 3.747-1.966.499-.499.968-.468 1.218-1.061.438-.375 1.654-1.125 1.779-1.654.062-.281.686-.844.904-1.032.125-.093.062-.468.157-.623.124-.032.155-.158.155-.281zm.564 1.373c0-.094 1.155-.969 1.654-1.311 1.03-.686 3.245-2.467 3.309-2.685.062-.187.343-.156.468-.281.125-.095.094-.28.188-.406.156-.187.469-.249.656-.405l.531-.718c.155-.126.529-.249.623-.375.094-.125.062-.343.188-.438l.312-.124c.219-.219-.062-.188.499-.562v-.156l.03-.155.095.031.031-.157c0-.469 1.622-2.527 2.435-2.527.375 0 .812.03.812.531 0 .344-.312.873-.438 1.216l-.781 2.029c-1.03 2.312-1.498 4.433-3.933 10.612l.188.033c.592 0 .529-.374.748-.719.562-.188.281-.343.531-.531.468-.311.374-.406.654-.686.625-.625 1.438-1.029 2.092-1.654.094 0 .656-.594.812-.688.125-.062.406-.031.468-.062.093-.062-.031-.154.155-.154.406 0 .906-.627 1.562-.627.406 0 .344.158.593.22.219.062.718 0 .875.095.311.436.998.373 1.279.842l-.031.281c.125.124.375.217.438.344l-.031.188c.343.375.312 1.81.687 1.81.873 0 1.155-.749 1.497-.749.781 0 1.655-1.03 2.093-1.436.968-.937 2.278-1.654 3.184-2.529 0 0 .28.156.343.156-.062.188-.561.468-.717.624-1.998 2.154-3.027 2.873-3.559 3.185l-.938.531c-.562.311-1.03.998-1.717.998-.218 0-.406.406-.748.406-.156.593-.812 1.498-.781 1.436-.436.998-1.842 1.904-2.652 2.622-.469.405-.688.687-1.281.937-.344.156-.717.156-.936.531-.344 0-1.842-.219-1.842-.688l.031-.344c0-.124-.063-.186-.188-.218 0-1.187 2.404-2.31 2.624-2.467.499-.374.717-.437 1.248-.719.25-.123.406-.405.654-.56.156-.095.313-.033.469-.095.5-.219.5-2.154.5-2.653 0-.623-.062-1.467-.562-1.936l-.093.031-.687-.156c-.312 0-.999.844-1.375.844-.593 0-1.561 1.029-1.934 1.34-.188.158-.438.188-.625.376-.062.063-1.219 1.28-1.374 1.374l.031.219c0 .436-1.28 1.186-1.497 1.498 0 .469-.969 1.123-1.031 1.405-.125.345-.344 0-.344.499l-.062.062c-.312 0-2.778 7.211-3.746 9.957l-1.092 3.154c-.219.717-.469 1.342-.812 2.027-.312.562-.53 1.717-.936 2.155-.094.093-.094 0-.188.155-.125.719-.344.531-.656.967l-.374.719c-.375.468-1.092 1.062-1.499 1.529l-.155.438-.343.123c-.062.063-.062.313-.188.438-.75.811-1.592 1.279-3.122 1.529l-1.125-.999.032-.156-.125-.625c0-.311.156-.437.219-.716.094-.438.281-2.03.5-2.342.312-.469.344-.938.592-1.436.625-1.219 1.156-2.404 1.937-3.591.843-1.28 1.842-2.466 2.747-3.684.468-.655 1.029-1.437 1.029-1.593 0-.187.406-.375.531-.529 1.312-1.562 1.061-1.843 1.904-2.686v-.125c0-.468.281-.717.406-1.123.717-2.248 1.685-4.4 2.528-6.619.031-.093.094-.093.155-.154.125-.156.312-1.062.406-1.312.25-.655.625-1.218.779-1.903h.031c.062 0 .594-1.249.75-1.718l1.343-3.776c0-.031-.062-.126-.093-.126-.095 0-.158.188-.188.25l-.095-.032c-.217 0-.123.406-.374.406-.873 0-1.653 1.281-2.122 1.592-1.344.875-2.248 1.687-3.309 2.467-.25 0-.25.344-.562.375-.06-.058-.215-.277-.215-.371zm-.937 15.328c-.031.187-.688.717-.688.779 0 .438-.188.25-.344.469-.094.154-.094.437-.217.623-.125.219-.406.25-.469.531-.063.281-.688.531-.688.938 0 .468-1.404 1.779-1.561 2.059-.094.157-.094.375-.156.562-1.123.875-.655 1.092-1.436 2.277-.75 1.438-1.561 3.436-1.561 5.215 0 .438.125 1.061.78 1.061.624 0 1.779-1.217 1.873-1.529.124-.375.499-.249.499-.531 0-.061.094-.219.125-.279l.094-.156h.125l.062-.094-.031-.155c0-.095.25-.251.311-.313l.094-.094c.22 0 .438-1.277.5-1.498h.157v-.155l.03-.156c.406-.812.781-2.56 1.062-3.497h.063c.155 0 .062-.219.125-.312l.217-.844c.094-.373.25-.687.375-1.03.5-1.592.905-3.246 1.499-4.838-.251 0-.251.28-.375.406-.121.247-.404.247-.465.561zm14.172-9.459c-.156 0-.812.561-1.374.967l-.655.25c-.156.125-.188.562-.469.562l-.156-.032c-.031.219-.062.438-.062.656 0 .126.03.312.125.405.53 0 .655-.312 1.091-.5.469-.188.813-.124.813-.623.187-.252.499-.281.654-.469l.188-.561s.593-.438.469-.438l.062-.438-.125-.031c-.187 0-.25.187-.344.313l-.217-.061zm19.794-8.055c.717 0 1.404-.125 2.121-.218.094.062.219.093.312.093.125-.123.344-.156.592-.156h.346c.406 0 .406-.154.623-.219l.156.095c.281-.187.688-.344 1.123-.344h.094c-.062-.28-.125-.562-.125-.843 0-.905.719-2.154 1.716-2.154.656 0 .781.312 1.219.75l-.031.124.061.501-.779 1.748c0 .623.906 2.434.906 2.434l-.031.219c.219.438.623 1 .623 2.154.375.344.281 2.029.312 2.561.656 0 .938-.439 1.529-.594.531-.156.531.031 1.031-.469l.748-.28c.842-.313 1.684-1.062 2.621-1.28 1.123-.844 2.561-1.779 3.744-2.623.5-.373 1.154-1.373 1.748-1.373.094 0 .094.126.094.188 0 .125 0 .217-.031.343l-1.373.938c-.561.405-1 1.124-1.594 1.467l-.465.126c-.314.218-.25.498-.75.498v.188c0 .063-.031.125-.188.187l-.188-.03c-.281.344-.406.375-.842.53l-.125.124-.094-.062c-.344.127-.998.812-1.156.812l-.373-.062c-.219 0-.25.218-.406.312-.998.438-2.152.906-3.307 1.498-.25.126-.281.375-.625.469-.062 1.656-.469 2.996-1.061 4.619-.062.125-.312.5-.312.594l.031.219c0-.156-.469.812-.625 1-1.435 1.435-2.371 2.496-4.214 3.119-.279.096-.561.314-.873.314-.344 0-.438-.031-.748.156l-.127-.064-.342.064c-.656 0-2.217-.625-2.561-1.561l.031-.283-.156-.248c0-.406.094-.782.281-1.125v-.25c.312 0 .219-.562.312-.749.062-.093.312-.03.312-.186v-.251c.188 0 .342-.438.438-.594.592-.905 1.717-1.686 2.684-2.248.281-.155 1.469-.904 1.717-.904.031 0 .344.094 1.438-.594.373-.249.154.221 1.496-.748-.219-1.936-.092-5.151-1.185-6.743l-.311-1.529c-.096.062-.283.218-.408.218s-.25-.061-.373-.061c-.062 0-.281.186-.312.248l-.344-.094.031.094-.062.062c-.188 0-.217.095-.344.095l-.219-.03c-.061.092-.156.092-.248.092h-.219c-.096-.03-.188-.062-.281-.062-.654.279-2.404.31-3.123.31l.127.439c-.312 0-1.094 1.81-1.344 2.091-.062.095-.094-.062-.156.156-.156.499-3.559 3.152-4.184 3.59-.125.094-.279.312-.405.312l-.219-.031c-.187.28-.967.904-1.342 1.062-.125.062-1.186.25-1.342.28-.062.063-.188.094-.281.094-.656 0-1.248-.404-1.811-.687-.312-.156-.905-.094-.905-.656 0 0-.249-.312-.249-1.061 0-1.312.406-2.154 1.592-3.371.406-.406.717-.999 1.186-1.343.219-.188.562-.249.749-.437.251-.218-.031-.313.469-.313.124-.093.124-.218.312-.311l.875-.282c.187-.094.344-.311.562-.405.719-.406 1.717-.468 2.528-.468l1.405.188.312-.064c.342 0 1.061.032 1.342.156.219.096.156.438.625.438.187.091.408.091.595.091zm-1.344.813c-.844-.437-1.404-1.344-2.716-1.344-.345.469-.562.25-.905.438l-.281.313c-.156.093-.438 0-.623.125-.158.093-.438.591-.594.748-.656.656-1.28 1.093-1.655 1.967-.437.156-1.779 2.685-1.779 4.183.156.125.375.187.594.187.688.031 2.372-1.029 2.996-1.372.687-.406 1.218-.999 1.968-1.375v-.279c.436-.375 1.654-1.125 1.779-1.654.062-.281.688-.844.904-1.032.125-.093.062-.468.156-.623.125-.033.156-.159.156-.282zm7.118 8.178c-.656.344-1.154.654-1.498.75-1.092.249-2.871 1.436-3.746 2.527-.125.156-.062.312-.156.438-.125.155-.469.187-.469.405l.031.22c-.094.093-.344.062-.344.218 0 .062 0 .155.033.218l-.312.157c-.125.156-.094.779-.156 1.029-.062.188-.312.28-.312.467 0 .751.969 1.5.998 1.5l.219.031v.125l.094.031.219-.031c0 .219.094.219.25.219.561 0 1.406-.064 1.842-.531.438-.219.936-.188 1.248-.654l-.062-.189c0-.124.375-.155.469-.217 2.123-2.123 1.498-2.404 2.248-4.185 0-.094.062-.155.154-.155.126-.469.312-2.217.312-2.686l-.031-.155c-.123 0-.341.22-.435.312l-.596.156zm1.028-11.33c0 .188 0 .344.031.53h.125l.031.093-.031.312c.438-.156.625-.905.625-1.311 0-.312-.156-.531-.467-.593-.282.187-.314.655-.314.969zm26.256 3.932c-.469.405-.656.654-1.248 1.062l-.094.248c-.311 0-.842.689-1.281.781-.904.905-2.311 1.343-3.248 2.061l-.592.125-.158.312c-.123.092-.592 0-.746.311-1.029-.279-2.061-.528-2.998-1.061-.156-.281-.156-.654-.156-.968 0-.311 0-.687.156-.968l-.094-.093c-.438 0-1.186 1.03-1.561 1.278l-.438.158c-.373.281-.031.437-.75.437-.375.187-.188.343-.748.343-.531 0-1.811-.062-2.061-.343l-.375.03c-.781 0-.875-.718-.875-1.219.781-1.217 1.781-2.808 3.152-3.433.344-.404 1.998-.998 3.029-.998.688 0 1.842.312 1.938 1.124.342-.437.779-.623 1.311-.623.373 0 .777.093 1.092.341 0 1.438-1.279 3.528-1.498 5.245.154.094.312.125.498.125 1.092 0 4.061-2.092 5.059-2.84l.096.03c.654-.562 1.373-1.062 2.061-1.593.373-.28.936-.904 1.248-.904.062 0 .279.031.279.124l-.029.095-.969.813zm-10.646-1.561c0 .127-.094.127-.188.127h-.156c-.188 0-.281.248-.404.341-.158.095-.314.03-.469.156l-.281.438c-.938.751-1.219 1.062-1.811 2.093-.094.123-.312.311-.312.468 0 .281-.467.749-.467 1.187 0 .248.311.248.498.248.467 0 .467-.154.873-.406.188-.093.596-.154.75-.279l.156-.314.438-.153.467-.438c.469-.437 1.938-1.123 1.938-1.811-.001-1.251-.284-1.22-1.032-1.657zm10.865-.313l.377-.998.031-.125.061-.25c.094-.531.25-.655.5-.999l.158-.468.277-.281c.16-.25.129-.623.314-.905.092-.125.217-.155.281-.312l.154-.438.312-.156c.5-.592 1-1.873 1.623-2.684.594-.782 1.312-1.375 1.936-2.092.25-.281.312-.5.592-.75.406-.374.596-.094.783-.624l.186.03c.188 0 1.529-1.092 2.811-1.092.438 0 .875.064 1.311.188 0 .438.656.156.656 1.655 0 .062-.529 1.029-1.092 1.622-.408.438-.689.905-1.062 1.342-.469.562-1.748 1.968-1.686 1.968-.469 0-.438.749-.873.749-.312 0-.531.094-.594.438.029-.219-1.967 1.997-2.684 2.559-.127.095-.627.219-.627.375l.031.219c-.342.187-.342-.124-.625.593l-.279.312c-.156.28-.186.595-.312.874-.062.125-.311.218-.311.375 0 .156.092.156-.283 1.279-.061.188-.342.25-.342.438l.061.342-.031.127c-.373 1.373-.592 2.434-.592 3.901 0 .749.686 1.029 1.311 1.029.406 0 .719-.562 1.094-.593l.031-.031.404-.156c.281-.093.531-.219.75-.405.188-.156 1.062-.905 1.219-.905.248 0 1.152-1.029 1.498-1.029-.094 0 1.496-.782 1.496-1.062 0-.217 1.125-.718 1.344-.906.125-.123.188-.342.312-.436s.281-.032.438-.156c.217-.188.373-.436.592-.594.5-.373 1.094-.75 1.5-1.217l.154.03.406-.123.125.062c0 .249-.906.811-.967.938.029-.031-.375.529-.75.592-.375.094-.344.904-1.217.904v.158l-.438.156-.156.279c-1.344 1.154-3.029 2.279-2.996 2.248-.156.125-.312.062-.436.156-.314.25-.127.593-.688.593.217 0-.5.282-.531.312-.062.062-.062.22-.156.312l-.436.124c-.283.156-.314.5-.752.5l-.156-.031c-.123.28-.811.749-1.123.749h-.156c-.312 0-.812.126-1.188.126-.277 0-.715-.156-.996-.188l-.188.031c-.064 0-1.186-1.156-1.283-1.438-.152-.343-.152-.874-.152-1.248l.031-2.527.312-1.5c.186-.188.154-.499.436-1.341l.156-.155.094-.47zm3.842-2.09c.342 0 .467-.407.686-.594.094-.062.439-.156.439-.281 0-.188.904-1.062 1.059-1.062.127 0 .5-.344.592-.437 0-.188.096-.095.16-.156l1.029-1.061c.094-.094.436-.156.467-.283.219-.747 1.623-1.652 2.248-2.715.406-.686 1.186-1.029 1.186-2.06 0-.469-.344-.875-.748-1.093-.031.125-.125.188-.25.188l-.375-.062-.406.343c-.342 0-.406.407-.625.595-.154.123-.623.217-.623.404l.029.188c.064-.093-1.059.968-1.059 1.28l.029.156c0 .062-.188.03-.188.156l.031.218-.467.281c-.279.405-.279.936-.439 1.218-.062.093-.279.062-.311.28l-.062.156-.031-.031c-.154 0-1.404 2.373-1.686 2.873-.25.468-.375 1.062-.685 1.499z" fill="#FF7968"/><path stroke="#FF7968" stroke-width=".591" stroke-miterlimit="10" d="M61.705 18.619s-.072 2.991 2.991 2.991c0 0 1.962-.263 1.962-2.673 0 0-.671-5.02-6.546.54-6.2 5.865-22.108 6.648-22.036 3.253 0-2.286 2.954-3.15 3.348-1.576.394 1.576-17.078 6.098-22.578 6.098-3.327 0-15.033.008-18.578-7.673" fill="none"/><path d="M203.031 26.781l.156-.123c.188-.469 1.062-1.529.969-1.529l.186.031c0-.064 0-.282.033-.313l1.217-1.185c.312-.312.529-.688.906-.906.092-.063.466-.094.466-.22l-.03-.187h.125c.219 0 1.28-1.061 1.53-1.25.187-.154.873-.342 1.185-.592.157-.094.221-.25.312-.312l.438-.124.312-.313h.247c.156 0 .127-.125.219-.156l.874-.28.313-.312c.406-.218.906-.249 1.342-.437-.187-.249-1.154-.78-1.187-.78h-.187c-.282 0-1.029-.999-1.311-1.342-.031-.343-.031-.718-.031-1.062 0-1 .062-1.998.312-2.965.123-.064.154-.157.154-.281v-.312c.188-.156.469-1.093.593-1.374l-.03-.187c0-.126.281-.281.344-.406l.438-1.188c.344-.529.779-1.309 1.373-2.091.406-.531 1.123-1.091 1.187-1.342.03-.218 2.373-2.435 2.716-2.715.186-.156.467-.25.686-.376l.312-.188c.188 0 .219-.28.344-.342.25-.158.656-.094.906-.281.404-.406 1.092-.344 1.654-.593.47-.686 3.059-.748 3.964-.748.75 0 3.186.498 3.186 1.498 0 .125.623.998.623 1.529 0 .25.031.5.155.719-.186 0-.124.311-.155.436l.031.125c0 .469-.748 1.624-1.218 2.435l-.904 1.03c-.687 1.03-1.872 1.438-2.841 2.092-.78.406-1.686.656-2.591.656-.219 0-1.624-.156-1.624-.938l.188-.031c.594 0 .594.5 1.594.5 2.651 0 4.057-2.06 4.68-2.121 0-.345.314-.626.595-.751 0-.562.187-.406.469-.749l-.03-.219c0-.157.217-.124.311-.219.375-.406.312-1.403.906-1.966v-1.342c-.063 0-.125-.062-.156-.124-.406-.749-.5-1.187-.938-1.531l-.281.032-.469-.312c-.279-.157-1.716-.157-2.091-.157-1.153 0-2.247.594-3.401 1.342-.5.313-.812.812-1.375 1.062 0 .938-1.747 1.279-2.092 2.684-.5.095-.936 1.093-1.186 1.499-.123.22-.373.345-.469.593-.186.375-.062.843-.749 1.186l.032.219c0 .188-.219.375-.312.532.033.062.033.155.033.218l-1.25 2.03c0 .062.03.155.125.187-.562.562-.594 1.279-.719 1.936-.375.406-.562 2.247-.562 2.84 0 .562.25.874.719 1.186h.312c.25 0 .499-.031.719-.155.404-.218 1.591-.28 2.121-.438 0-.187 1.779-.468 2.686-.468.561 0 2.277.094 2.715.312-.03.624-1.654.748-1.811.906 0 .031-.499.311-.375.311l-.156-.031c-.561 0-1.559.468-1.559.468-.408.095-.938.095-1.343.095-.53 0-1.062-.248-1.218-.248-.219.248-.842.186-1.186.31l-.782.282c-.687.25-1.278.779-1.622.905l-.219-.03c-.156 0-.25.279-.407.342l-.186-.031-.093.031v.155l-.314.28-.186-.031c-.219 0-.75.813-.874.939l-.187-.033c-.157 0-1.219 1.188-1.375 1.375-1.154 1.342-2.123 2.901-3.277 4.182-.249.281-.532 1.28-.532 1.187 0 .094-.186.188-.186.374l-.031.157c-.188.937-.404 1.403-.749 2.278l.031.344c0 .468-.156.779-.156 1.342l.125 1.529.436.779c0 .719.53.906.53 1.156l.252.219c0 .123.219.156.312.156.155.095.936.53 1.123.53.937 0 1.936-.436 2.934-.655.063-.156.751-.468.938-.468l1.592-.843c.281 0 .594-.688 1.03-.688.218 0 .282-.375.499-.469.531-.217 1.469-1.217 1.5-1.217.344 0 1.217-1.124 1.529-1.373.592-.467 1.093-.844 1.496-1.655l.094-.062c.063-.031.125-.562.502-.562l.311-.312c.312-.125.656-.686.625-.623.281-.189.655-.844 1.342-1.438.78-.686 1.812-2.277 2.278-2.277.062 0 .188-.188.22-.25.748-.906 1.529-1.062 2.309-1.842.063 0 .127.249.158.312 0 .188-1.032.811-1.343 1.186-.688.781-1.624 1.561-2.372 2.247l-.406.374c-.063.406-2.811 3.186-3.215 3.684-.127.156-.533.375-.533.562l-.623.562-.188.312c-.154 0-.842.718-.967.874-.654.406-1.156 1.092-1.842 1.498l-.125.188c-.78.53-1.592 1.093-2.342 1.685-.592.438-1.686.875-2.279 1.031-.311.311-1.028.529-1.434.529-.282 0-.407.22-.594.22l-.438-.062c-.219 0-.156.187-.5.187-.312 0-.656-.062-.937-.156-.499-.188-1.155-.03-1.56-.437-.812-.812-1.531-.874-2-1.778-.123-.22-.466-.406-.466-.626l.062-.187c-.438-.031-.688-1.219-.781-1.561.062-.125.125-.312.125-.438 0-.219-.281-.187-.281-.562l.062-.748c0-.188-.124-.25-.124-.375 0-.498.499-1.03.624-1.593-.03-.03-.155-.093-.155-.155 0-.344.873-1.279.873-1.374 0-.093-.032-.187-.126-.218.032-.342.531-.843.564-.937.093-.093.093-.218.155-.314zm17.733-9.019l-.033-.094-.25.031c-.279 0-.498-.125-.779-.188-.438.499-1.436.312-1.811.438-.063.437-.998.124-1.061.624l1.746.031c.313 0 2.188-.406 2.188-.842zm3.841 6.211c.842-.688 1.684-1.654 2.59-2.247.344-.22.779-.344 1.123-.593.781.188 1.967.156 1.967 1.248 0 .281-.188 1.217-.312 1.436l-.312.312c-.25.47-.156 1.062-.469 1.498-.405.594-.374.781-.593 1.342-.062 0-.156.095-.156.157l.031.188c0 .155-.25.281-.312.407-.312.559-.404 1.34-.592 1.934.03.062.094.156.188.156.248 0 .467-.688.842-.75.281-.062.812-.594 1.219-1.029l1.029-1.062c.188-.188.406-.28.623-.436.877-.781 1.781-1.529 2.686-2.248.125-.094.406-.094.469-.156s.062-.25.123-.312c.064-.062.344-.062.469-.154-.094.062.812-.906 1.562-.906.062 0 .373.031.373.156 0-.125 1.25.373 1.375.531 0 .093.031.186.125.219 0 .779-.125 1.402-.438 2.121l-.062.062c-.219.219-.375.469-.375.812-.156.249-.686 1.154-.904 2.123-.188.904-.469 1.778-.469 2.684 0 .655 0 1.342.312 1.936l.967.031c.938 0 2.092-.281 2.467-.906.373-.217.654.064.779-.467l.156.03c.25 0 .125-.281.281-.312.906-.438.688-.562 1.342-1.061l.906-.594c.186-.156.623-.781.842-.781l.219.031c.281-.375.781-.592 1.125-.906l.373-.342c.064-.188.125-.343.344-.404.625-.221 1.779-1.875 2.34-1.875.189 0 .031-.28.189-.375.125-.094.279-.094.404-.156.219-.28 1.656-1.748 2.373-2.061.25 0 .781-.592.969-.592.062 0 .092.03.092.094 0 .529-1.652 1.468-2.121 1.936-1.094 1.123-2.217 1.997-3.436 2.998-.404.312-2.121 1.528-2.121 1.777l.029.094c0-.125-.779.686-1.184.999-.531.405-1.062.687-1.5 1.218-.219.219-.717.779-.812.779l-.219-.031-.154.281c-.186.126-.406.063-.594.156-.125.062-.186.219-.311.312-.906.594-1.936.904-3.029.904-.25 0-.469 0-.717-.03l-.156-.156c-.344 0-.656.187-.719.187s-.125-.187-.406-.187c-.438 0-.498-.593-.967-.593-.25-.281-.656-.344-.906-.594-.062-.498-.092-1.029-.092-1.528 0-2.778.342-3.747 2.652-7.462l-.062-.093c-.719 0-1.188.842-1.748 1.154-.312.218-.5.406-.75.593l-.469.156c-.092.064-.186.531-.592.594-.373.062-.593.905-1.031.905-.374 0-1.122 1.374-1.497 1.655-.187.125-.437.125-.624.279-.188.157-.219.438-.438.594l-.594.312c-.28.219-.375.438-.748.593h-.312c-.062.062-.123.093-.219.093-.562 0-1.592-.498-2.029-.842.062-3.277 1.561-4.838 2.684-7.648-.343.031-1.217.781-1.466 1-.126.123-.937 1.092-1.591 1.092l-.031-.28zm48.668-2.091c0 .374-.844.905-1.123.999-.781.781-2 1.654-3.373 1.654-1.125 0-1.873-1.03-2.777-1.562-.469.312-.312 1.062-.596 1.499-.061.156-.373.5-.467.592-.498.531-.561 1.406-1.029 1.969-.25.28-.438.562-.656.873l-.219.438-.031.031c-.031.25-.654.936-.904 1.342l-.562 1c-.219.156-.469.311-.656.498l.031.219s-.811.844-.904.969l-.625.748c-.281.344-.904 1.218-1.188 1.25v-.032l.033.187c0 .219-.375.156-.498.249l.029.22-.029.094-.189-.032c-.219 0-.125.376-.25.47l-.906.312c-.342.186-.404.406-.84.406-.719 0-1.5-.438-2.154-.719-.406-1-.654-1.873-.654-2.965 0-3.467 2.184-6.619 2.184-10.054 0-.155 0-.312-.031-.467-.969.312-1.688 1.093-2.561 1.593-.156.093-.998.562-.998.562l-.375-.063-.125.031c.25-.748 1.342-1.061 1.967-1.499l.438-.468s.404-.155.592-.281c.188-.123.875-.686.906-.749.719.281 1.498.281 2.246.437.312.531.627 1.375.627 1.748l-.158.188c0 .062.158.344.158.562l-.314 2.154c0 .812-.094.905-.312 1.623.033.125.064.28.064.406 0 .219-.189.499-.344.654l-.156 1.188s-1.188 3.776-1.217 5.557l.154.031c.189 0 .189-.095.312-.188l.219.031.094-.031c.156-.562 1-.656 1.342-1.031l-.031-.219c1.373-1.217 2.373-2.777 3.621-4.15.188-.22.438-.344.594-.594l-.031-.219c0-.467.936-.998 1.094-1.436l-.033-.186.033-.096c.717-.874 1.342-1.811 1.498-2.091.25-.405-.096-.344.467-.905.219-.593.156-.905.594-1.344.094-.123.123-.373.123-.686l-.029-.625c0-.499.061-1.029.344-1.404.312.125.842.094 1.061.312.375.343.062.938.375.938l.062.123c.094.562.467 1.311.748 1.812l.156-.062c.189 0 .189.187.5.187.719 0 1.373-.312 2.027-.561.158-.033 2.248-1.311 2.498-1.531l.154.094zm6.12 16.919-1.186 1.343h-.127l-.623.468c-.75.125-.717 1.092-1.029 1.591-.062.126-.781.782-.781 1.188v.156c0 .062 0 .156-.062.156-.406 0-.594 1.341-.779 1.623-.064.094-.219.187-.314.28l.031.156c0 .126-.498.906-.777 1.343-.438.687-.627.718-1.064 1.218l-.436.748c-.375.438-.906.78-1.344 1.186-.123.126-.186.375-.312.469l-.436.125c-.248.156-.342.469-.623.593l-.594.156c-.406.28-.938.656-1.592.656l-.906-.032-.373.032c-.469 0-.719-1.062-.719-1.405 0-.406.031-.842.154-1.248.064-.188.283-.594.283-.749v-.187c0-.125.654-.781.748-.938s.062-.344.156-.469c.125-.186.438-.219.594-.436.125-.156.062-.346.154-.469.469-.594 1.219-1.438 1.906-1.936l.811-.594.748-.469.752-.625c.062-.03.342-.092.436-.154l.311-.281c.346-.188 1.281-.625 1.5-.905.096-.126.031-.344.156-.468.031-.062.248-.094.281-.126.096-.094.219-.718.312-.874.061-.062.123 0 .156-.156.531-.124.342-1.186.75-1.653 0-.374.561-.843 1.029-1.937l.59-1.404c0-.062.096-.093.127-.093.092 0 .125-.657.188-.75.062-.095.219-.188.312-.282-.031-.873 1.092-1.621 1.342-3.121.156-.936.562-1.34.779-2.122-.311.031-.904.47-1.215 1.03-.219.406-1.281.688-1.502.905-.092.095-.092.376-.154.438l-.467.155-.75.471c-.344.216-.529.623-.875.873l-.469.154c-.467.406-1.279 1.217-1.811 1.217-.217 0-.779-.123-.779-.217v-.031l-.094-.062c-.75-.156-1.529-1.686-1.529-2.404 0-.469.188-1.217.311-1.654.531-.468.469-1.217.908-1.779.092-.125.467-.374.467-.531l-.029-.188c.342-.342 1.811-1.998 1.811-2.277v-.156c.623-.969 1.529-1.623 1.652-2.842-.061-.092-.154-.124-.25-.124-.686 0-1.654.688-1.871.688-.408 0-.281.467-.564.467 0-.062-1.496 1.312-2.434 1.374.342-.248.592-.592.904-.904.314-.313.719-.47 1.062-.75.219-.187.373-.436.594-.593.373-.281 1.779-.718 2.248-.718.904 0 2.246.249 2.246 1.404 0 .438-.189.844-.312 1.248l.031.188c0-.156-.125.688-.654 1.219l.092.187c-.029.062-.123.062-.154.062-.281 0-1.998 3.278-2.311 3.745l-.279.281.029.188c0 .281-.281.188-.344.438l.031.156-.031.125c-.654.748-.75 1.779-1.031 2.716.096.062.189.124.312.124.064 0 .814-.375.875-.436-.156.154.904-1.031 1.811-1.5.781-.404 1.438-.874 2.061-1.312.812-.529 1.373-1.403 2.154-1.777.342-.47.748-.719 1.186-1.094l.436-.749c.25-.25.531-.467.75-.748.656-.781.783-1.781 1.811-2.248l.188.031.312-.125c.096 0 .594.155.719.186l.061-.092c.062 0 .219.281.346.281 0 1.061-.719 2.122-1.156 2.84l-.312.312.031.187c0 .064-.529 1.188-.623 1.312-.092.125-.373.125-.373.312l.031.126h-.127l.031.25c0 .248-.688 1.592-.842 1.84-.096.157-.346 1.031-.469 1.062-.158.562-.531 1.154-.812 1.654-.279.498-.279 1.154-.592 1.654-.033.062-.156-.03-.156.125l-.031.062-.219.5c-.596 1.373-1.281 2.684-2.029 3.964.092-.031.561-.126.592-.188m-12.459 12.33c.127.092.281.155.438.155.344 0 .5-.313.812-.344.529-.062.842-.53 1.186-.874.312-.281.812-.561 1.062-.904l.125-.469c.062-.062.248-.031.311-.125.25-.281.594-1.155.594-1.155 0-.312.404-.374.467-.499l.281-.748c.219-.346.375-.595.625-.906l-.031-.25c.094 0 .312-.438.312-.561 0-.5 1.248-1.874 1.342-2.624-1.342.405-2.746 1.562-3.434 2.249l-.219-.031c-.217 0-.811.873-.996 1.061-.158.156-.439.156-.439.468 0 .249-1.125 1.312-1.342 1.624-.125.156-.188.5-.312.623l-.312.125.031.221c0 .092-.123.28-.156.404-.186.781-.344 1.592-.344 2.402v.158z" fill="#FF7968"/><path stroke="#FF7968" stroke-width=".509" stroke-miterlimit="10" d="M273.176 43.074c0-4.117 17.837-4.461 17.837-4.461s5.104-.125 5.104-5.104c0-2.271-3.937-.938-3.937.729 0 2.873 7.124 4.25 19.791 4.25s21.63-.968 21.63-3.841" fill="none"/></svg>