<svg xmlns="http://www.w3.org/2000/svg" width="130.204" height="21.346" viewBox="101.83 16.694 130.204 21.346" enable-background="new 101.83 16.694 130.204 21.346"><path d="M125.955 24.746c-.024-.012-.194-.304-.194-.341l.012-.109c0-.098-.17-.426-.17-.694l.061-.158-.024-.22c0-.84.171-1.667.317-2.422l.049-.049v-.304c.109 0 .037-.171.097-.219h.061l.109-.425-.012-.074c.073-.012.085-.195.11-.292.194-.048.134-.268.219-.365.146-.146.183-.329.316-.487.073-.097.195-.183.256-.304l.049-.207c.097-.146.304-.231.426-.366l.061-.157.146-.062.158-.206.219-.049c.366-.134.73-.232 1.108-.317l.036.049.062-.049.268.109.256.037.11.11c.256 0 .743.402.743.414l-.012.061.268.208.061.17.109.049c.073.074.037.256.207.415.122.451.147.936.147 1.4l-.098 1.436-.048.062.048.146c-.109.109-.158.268-.158.317l.049.074-.085.194.085.061c-.037.122-.17.098-.207.255-.085.438-.292.999-.426 1.266-.097.184-.219.707-.304.938-.061.159-.329.865-.329 1.01.073-.121.085-.133.183-.218l-.012-.084.024-.025.305-.426.097-.158-.012-.074.171-.134-.012-.073.17-.243c.012-.122.584-.792.584-.792l-.012-.073c0-.085.231-.328.268-.389l-.012-.074c0-.084.17-.195.219-.255l.171-.414.097-.049c.098-.122.085-.231.219-.365l-.012-.073.17-.17-.012-.109c.073-.11.158-.025.158-.232l.109-.109-.012-.061.328-.353-.012-.073c0-.134.146-.171.22-.243l.061-.159.109-.049.036-.158.11-.048.061-.17c.195-.195.572-.572.584-.621.037-.17.475-.45.475-.512l.195-.122.207-.268.085.013.085-.11.414-.256.062-.036c0-.085.45-.329.535-.378l.146-.037.122-.109c.085-.037.208-.024.304-.037.146-.085.183-.085.354-.085.511 0 .901.134 1.193.512.061.036.158.146.195.194l-.012.062c0 .109.171.365.171.584l-.024.122.048.049-.012.146.061.475c0 .048-.073.024-.073.17 0 .305-.207.755-.401 1.084l-.048.024.023.036c-.061.037-.048.281-.085.305l-.133.048v.11l-.012.109c-.208.109-.183.401-.341.547.232.183.731.268 1.023.376.377 0 .779.708.779.695-.146.134-.365.146-.56.146l-.292-.012c0-.086.122-.109.231-.109l.17.012.062-.122c0-.207-.524-.621-.694-.621-.109 0-.596-.183-.73-.232-.474.33-.901 1.206-1.108 1.206-.158.231-.268.475-.548.572 0 .061-.061.159-.109.207l-.085-.012-.037.097c-.085.086-.146.073-.207.183l-.256.146s-.073.171-.183.171c-.073.073-.572.304-.572.352-.024.05-.231.123-.28.135l-.122.037-.097.024h-.073c-.159.098-.389.11-.523.232h-.244c-.048.036-.133.05-.219.05l-.134-.014-.329.025c-.353 0-.584-.365-.584-.5l.024-.109-.024-.134.231-.572c.049-.341.621-.839.584-.803.146-.147.366-.427.572-.427.122-.207.536-.401.853-.486.036-.037.158-.136.207-.147.354-.061.694-.281.865-.281s.268-.072.414-.085l.097.013c.17-.061.633-.061.816-.061.097-.073.048-.17.097-.256.122-.17.304-.377.426-.608l-.012-.073.122-.109.561-1.218.012-.061c.147-.072.232-1.059.232-1.218 0-.328-.183-.852-.572-.852l-.401-.024c-.208 0-.475.098-.67.232-.049.072-.366.193-.487.279-.048.037-.206.208-.255.219-.122.122-.305.195-.451.304-.926.707-1.448 1.461-1.412 1.461l-.073.012.012.073-.109.085c-.074.098.024.086-.159.207l-.158.219c0 .183-.183.269-.255.415l-.11.219-.06.146-.061-.012c-.073 0-.061.219-.182.219l.024.024c0 .06-.097.158-.146.195-.012.207-.048.219-.219.365l.013.074-.109.085.012.074-.049.098-.012.036c-.061 0-.085.17-.109.219-.427.427-.365.779-.682 1.048 0 .146-.158.182-.158.207-.061.158-.048.341-.268.365-.024.244-.28.475-.366.694l-.109.097-.048.158c-.195.28-.378.621-.585.888l-.097.353c-.037.073-.134.085-.134.184v.024s-.122.17-.231.401c0 .024-.182.22-.207.341l-.475 1.036-.158.268-.062.268c-.206.207-.328.523-.45.792-.281.279-.573 1.022-.816 1.399l-.024.049.012.049c-.353.183-.207.657-.682.657-.134 0-.402-.072-.402-.242 0-.172.073-.316.098-.477l-.049-.036c0-.219.402-.669.487-.937l-.012-.098.109-.11.414-.888.036-.05.122-.426s.219-.365.219-.56l-.012-.073c.389-.268 1.01-2.24 1.096-2.277l.11-.426c.06-.06.304-.743.328-.743.048 0 .487-1.412.463-1.242.061-.463.146-.499.207-.694.109-.34.256-.986.256-.937l.122-.292-.025-.207.013-.086c.207-.122.244-1.388.244-1.655 0-.427-.073-.865-.244-1.388-.061-.183-.317-.255-.366-.536l-.061.012-.256-.169c-.097-.013-.231-.123-.268-.207-.268.06-.608.06-.84.207-.244.157-.523.109-.743.376-.024.037-.012.159-.073.159l-.062-.012c-.084 0-.766.913-.864 1.314-.353.268-.365.804-.475 1.059-.232.256-.073.731-.304.889l.036.134c0 .17-.122.292-.146.451-.048.341-.084.754-.084 1.083l.024.122-.049.158.049.158-.049.097.049.061-.049.159.049.133-.049.073.049.207c.013.122.085.609.243.609m.292.298v-.012m7.621-2.215l-.426.269-.109.072-.329.354s-.438.34-.511.682h-.049c-.134.195-.207.475-.207.706 0 .171.097.561.316.561.561 0 1.121-.158 1.571-.5l.28-.218c.037-.184.208-.159.255-.22.098-.134-.012-.061.183-.219.158 0 .536-.573.597-.645l.511-.597.061-.182c.17 0 .512-.572.56-.706l.073-.146-.195-.024c-.268 0-.669.122-.73.122h-.146c-.365 0-1.083.39-1.546.621l-.158.024v.046zm11.177 4.152l-.304.292-.292.171-.536.486c-.146.123-.755.366-.938.731l-.169.049c-.122.049-.305.391-.475.391l-.415.17c-.414.182-.877.646-1.327.646l-.073.085-.378-.135c-.048 0-.535-.377-.535-.474l.024-.025c-.061-.121-.097-.255-.097-.389 0-.292.146-.512.28-.914.17-.377.341-.754.608-1.072l.292-.352c.195-.244.475-.438.645-.695-.377-.023-.523-.23-.84-.365-.207.269-.536.56-.779.828l-.523.573c-.024.11-.365.256-.463.487-.195.011-.012.268-.329.292v.061l-.158.073-.049.109c-.317.316-.682.572-1.048.839-.109.221-.146.111-.206.185-.086.098-.074.255-.232.255.049.012-.085-.012-.219.146-.122.136-.292.329-.548.341 0 .208-.486.184-.62.221-.122.06-.269.12-.427.12l-.39-.049-.073.024c-.085 0-.292-.268-.353-.341-.024-.108-.037-.206-.037-.316 0-.109.024-.268.158-.268.158 0 .28.171.317.304.122.415.487.243.657.316.316-.049.62-.219.865-.255.085-.013.523-.45.767-.657.182-.146.401-.269.535-.463.11-.061.341-.11.341-.269 0-.085.402-.316.487-.389l.11-.183.438-.414c.231-.244.475-.573.682-.743.426-.353.5-.658.913-.95-.109-.268-.158-.547-.158-.827 0-.256.085-.669.183-.669v-.121c.195-.146.255-.39.353-.462l.17-.061c.073-.038.231-.244.499-.244.024 0 .56.085.682.244l-.012.048.024.194c0 .354-.364.39-.364.573 0 .122-.415.438-.415.474l.012.086c0 .061-.268.146-.268.523 0 .292.146.304.146.402l-.012.036.219-.012c.317 0 .657.097.961.182-.024.171 0 .305-.182.366v.06c0 .037-.317.548-.524.682l-.061.231-.377.584c-.171.281-.208.632-.39.901-.049.074-.244.67-.244.756 0 .097.024.243.158.243.354 0 .56-.208.828-.402l.427-.206c.183-.146.426-.255.633-.378.011-.036.036-.134.085-.134l.061.023.268-.183c.183-.133.316-.376.511-.438l.073-.024c0-.146.158-.108.231-.158l.098-.122.085.013.304-.28v-.037c0-.025.281-.171.426-.317h-.122l.073-.024c0-.135.159-.109.231-.158.062-.036.171-.22.33-.256l.073-.06c0-.074.109-.109.146-.171v.085l.158-.122c.158 0 .426-.463.561-.463l.183-.121h.049c0-.182.073-.122.146-.231v.292c-.268.06-.146.146-.23.231l-.292.17-.232.244c-.158.122-.353.22-.535.304-.048.196-.109.172-.255.257zm-3.81-3.141c-.061.134-.122.414-.122.499l.061.086c.268-.353.536-.572.596-1.047l-.146-.037c-.159 0-.28.219-.28.353l.012.085-.121.061zm8.207 2.008c-.122 0-.426.706-.524.816l-.061.061c-.06.195-1.388 1.229-1.631 1.4l-.159.121-.085-.011c-.255.376-.791.56-1.156.56-.256 0-.487-.158-.707-.268-.122-.062-.353-.037-.353-.257v-.06l-.061-.025c-.037-.097-.037-.219-.037-.328 0-.329.109-.573.268-.962l.353-.353c.158-.159.28-.39.463-.524l.292-.17c.097-.084-.012-.122.183-.122l.122-.121.34-.11.219-.157c.281-.158.669-.183.986-.183l.548.073.122-.025c.122 0 .414.013.523.061.086.038.062.171.244.171l.111.413zm-.403-.061c-.328-.17-.548-.524-1.059-.524-.134.183-.219.098-.353.171l-.109.122-.243.049-.232.292c-.255.256-.499.426-.645.767-.171.061-.694 1.047-.694 1.631.061.049.146.073.231.073.548 0 1.412-.73 1.461-.767.194-.194.377-.182.475-.414.17-.146.645-.439.694-.645.024-.11.268-.33.352-.403l.062-.243c.049-.011.06-.06.06-.109zm.22.536c0-.037.451-.378.646-.511.401-.268 1.265-.962 1.291-1.047l.182-.109.073-.159.256-.158.207-.28.244-.146.073-.171.122-.048c.086-.085-.024-.073.195-.219v-.061l.012-.061.037.012.012-.062c0-.183.632-.985.949-.985.146 0 .317.011.317.207 0 .134-.122.34-.171.474l-.305.791c-.401.902-.584 1.729-1.533 4.139l.073.013c.231 0 .207-.146.292-.28.219-.074.109-.134.207-.208.182-.121.146-.158.255-.268l.816-.645.316-.268.183-.024.061-.06c.158 0 .353-.245.609-.245.159 0 .134.062.231.086l.341.037c.121.17.389.146.499.328l-.012.11.171.134-.012.073c.134.146.122.707.268.707.34 0 .451-.292.584-.292.305 0 .645-.402.816-.561.378-.365.889-.645 1.242-.986l.134.061c-.024.073-.219.182-.28.243-.779.84-1.181 1.121-1.388 1.243l-.366.207c-.219.122-.402.39-.669.39-.085 0-.159.158-.292.158-.061.232-.317.584-.305.561-.17.39-.718.741-1.034 1.021-.183.158-.268.268-.499.366-.135.061-.28.061-.365.206-.134 0-.719-.085-.719-.268l.012-.134-.073-.085c0-.463.938-.901 1.023-.963.195-.146.28-.17.487-.28l.255-.219.183-.036c.195-.085.195-.84.195-1.035 0-.243-.024-.572-.219-.755l-.036.012-.269-.061c-.122 0-.389.329-.536.329-.231 0-.609.401-.754.523l-.244.146c-.024.024-.476.5-.536.536l.012.086c0 .17-.5.462-.584.584 0 .183-.377.438-.402.548-.049.135-.134 0-.134.194l-.024.024c-.122 0-1.083 2.812-1.461 3.883l-.426 1.23c-.086.279-.183.523-.317.79-.122.22-.207.67-.365.842l-.073.06c-.049.28-.134.208-.256.377l-.146.28c-.146.183-.426.415-.584.597l-.061.172-.133.047-.074.171c-.292.316-.621.499-1.218.597l-.438-.39.012-.062-.049-.243c0-.122.061-.17.086-.279.037-.171.109-.792.195-.913.122-.184.134-.366.231-.561.243-.475.451-.938.755-1.4.329-.5.718-.962 1.071-1.438.182-.255.401-.561.401-.62 0-.073.158-.146.207-.207.512-.609.414-.719.743-1.047v-.049c0-.183.109-.28.159-.438.279-.877.657-1.716.985-2.582l.061-.06c.049-.061.122-.415.158-.512.098-.255.244-.475.304-.742h.012c.024 0 .232-.487.292-.67l.524-1.473-.036-.049-.074.097-.037-.012-.146.158c-.34 0-.645.5-.828.621-.524.341-.876.658-1.291.962l-.219.146-.084-.142zm-.365 5.978c-.012.073-.269.28-.269.305 0 .17-.073.097-.134.182l-.084.243c-.049.086-.159.098-.183.208-.025.108-.268.206-.268.364 0 .184-.547.694-.609.805l-.061.219c-.438.341-.255.425-.56.888-.292.561-.609 1.34-.609 2.034 0 .171.049.414.304.414.243 0 .694-.476.73-.597l.195-.208.048-.108.037-.061h.049l.024-.037-.012-.061.122-.121.037-.037c.085 0 .171-.498.194-.584h.062v-.061l.012-.062c.159-.316.305-.997.414-1.363h.025l.049-.122.084-.329.146-.401c.195-.62.353-1.266.584-1.887-.098 0-.098.109-.146.159-.047.096-.158.096-.181.218zm5.527-3.689c-.061 0-.316.219-.536.378l-.255.098c-.061.048-.073.219-.183.219l-.062-.013-.024.256.049.157c.207 0 .255-.121.425-.194.183-.073.317-.049.317-.243l.255-.182.073-.22s.231-.171.183-.171l.024-.171-.049-.013c-.073 0-.097.073-.134.123l-.083-.024zm7.72-3.141c.279 0 .547-.049.827-.085l.122.037c.049-.048.134-.061.23-.061h.135c.159 0 .159-.06.243-.085l.061.037c.109-.073.268-.134.438-.134h.036c-.024-.11-.048-.22-.048-.329 0-.353.28-.84.669-.84.256 0 .305.122.476.292l-.012.049.024.195-.304.682c0 .243.354.949.354.949l-.012.085c.085.171.243.391.243.841.146.134.109.791.122.999.256 0 .366-.172.596-.232.208-.061.208.012.402-.183l.292-.11c.328-.122.657-.414 1.022-.499.438-.33.998-.694 1.46-1.023.195-.146.45-.536.682-.536l.036.073-.012.134-.535.366c-.219.158-.391.438-.622.572l-.181.049c-.123.085-.099.194-.293.194v.074l-.073.073-.073-.012c-.109.134-.158.146-.329.207l-.048.048-.036-.023-.452.316-.145-.023c-.086 0-.098.084-.159.121-.389.171-.839.354-1.29.584-.097.049-.109.146-.244.184-.024.646-.183 1.168-.414 1.801l-.122.231.012.086c0-.061-.183.316-.244.39-.56.561-.925.974-1.644 1.217-.108.037-.218.122-.34.122-.135 0-.171-.012-.292.062l-.049-.025-.134.025c-.255 0-.864-.243-.999-.609l.012-.11-.061-.097c0-.158.037-.306.109-.438v-.098c.122 0 .086-.219.122-.292l.122-.073v-.1c.074 0 .133-.172.171-.231.231-.354.67-.658 1.047-.878.109-.06.573-.352.67-.352.012 0 .134.037.561-.232.146-.097.061.086.583-.292-.085-.754-.036-2.009-.462-2.629l-.122-.596-.159.084-.146-.024-.122.097-.134-.037.012.037-.024.024-.134.037-.085-.012-.097.037h-.085l-.109-.024c-.255.108-.938.121-1.218.121l.05.171c-.122 0-.427.706-.524.815l-.061.061c-.062.195-1.388 1.23-1.632 1.401l-.158.122-.085-.013c-.073.109-.377.353-.524.414-.048.024-.462.098-.523.109l-.109.036c-.256 0-.487-.157-.707-.268-.122-.061-.353-.036-.353-.257 0 0-.098-.12-.098-.413 0-.512.159-.84.621-1.314.159-.159.28-.39.463-.524l.292-.17c.098-.085-.012-.122.183-.122l.122-.121.341-.11.219-.157c.281-.159.67-.183.986-.183l.548.073.122-.025c.133 0 .414.012.523.061.085.037.061.171.244.171.073.035.16.035.233.035zm-.524.316c-.329-.17-.547-.524-1.059-.524-.135.183-.219.098-.353.171l-.11.122-.243.049-.232.292c-.256.256-.499.426-.645.767-.171.061-.694 1.047-.694 1.631.061.049.147.073.232.073.268.012.925-.401 1.168-.535.268-.158.475-.39.768-.537v-.108c.17-.146.645-.439.694-.645.024-.11.269-.33.353-.403l.061-.243c.047-.012.06-.061.06-.11zm2.775 3.191c-.255.134-.45.254-.584.292-.426.097-1.12.56-1.461.985l-.061.171c-.049.061-.183.073-.183.158l.012.085-.135.086.014.085-.122.062c-.049.061-.037.303-.061.4l-.122.182c0 .294.378.586.389.586l.085.013v.048l.037.012.085-.012c0 .086.037.086.098.086.218 0 .548-.025.718-.207.171-.086.365-.073.487-.255l-.024-.074c0-.049.146-.061.183-.085.828-.827.584-.938.877-1.632l.06-.061c.049-.184.122-.864.122-1.048l-.012-.06c-.048 0-.133.085-.169.121l-.233.062zm.401-4.419l.012.206h.049l.012.037-.012.122c.171-.061.244-.353.244-.511 0-.122-.061-.207-.182-.231-.11.072-.123.254-.123.377zm10.241 1.533c-.184.158-.256.256-.486.415l-.037.097-.499.305c-.354.353-.902.523-1.268.804l-.23.048-.062.122c-.049.036-.231 0-.291.122-.401-.109-.804-.206-1.169-.414-.062-.11-.062-.255-.062-.377 0-.121 0-.268.062-.377l-.037-.036c-.172 0-.462.401-.609.498l-.17.062c-.146.109-.012.17-.292.17-.147.073-.074.134-.292.134-.208 0-.707-.024-.805-.134l-.146.012c-.305 0-.342-.28-.342-.476.305-.475.695-1.095 1.229-1.339.134-.158.779-.39 1.182-.39.269 0 .718.122.755.438.134-.17.304-.243.513-.243.145 0 .302.037.425.133 0 .561-.499 1.376-.584 2.045.061.037.122.049.193.049.427 0 1.584-.816 1.974-1.108l.037.011c.256-.219.536-.414.804-.621.146-.11.366-.353.487-.353l.109.049-.012.037-.377.317zm-4.153-.609l-.073.05h-.061c-.073 0-.109.097-.158.133l-.183.061-.109.171c-.366.293-.476.414-.706.816-.037.048-.122.122-.122.183 0 .11-.182.292-.182.463 0 .097.121.097.193.097.183 0 .183-.06.341-.159l.293-.109.061-.122.171-.06.182-.17c.184-.171.756-.438.756-.707 0-.488-.111-.476-.403-.647zm4.237-.122l.147-.389.013-.049.022-.098c.037-.207.099-.255.196-.389l.062-.183.107-.109.122-.354.109-.122.061-.171.122-.061.633-1.047c.231-.305.512-.536.755-.815l.23-.292c.159-.146.233-.037.306-.244l.072.012c.073 0 .597-.426 1.096-.426.172 0 .342.025.513.074 0 .171.256.061.256.645 0 .024-.206.401-.427.633l-.413.523c-.184.219-.683.768-.658.768l-.341.292c-.122 0-.206.037-.231.171.012-.085-.768.779-1.047.998-.05.037-.244.085-.244.146l.012.085c-.133.073-.133-.049-.243.232l-.109.121-.121.341-.122.146s.036.061-.11.499l-.133.171.023.133-.012.05c-.146.535-.23.949-.23 1.521 0 .292.268.4.511.4.158 0 .28-.219.428-.23l.012-.013.157-.061c.108-.035.206-.085.292-.158.074-.061.415-.353.476-.353.097 0 .449-.401.584-.401-.036 0 .583-.305.583-.414 0-.085.439-.28.525-.354l.12-.17.172-.061.231-.231c.194-.146.426-.292.585-.475l.06.012.158-.048.049.024c0 .097-.354.316-.378.366.012-.012-.146.207-.292.231-.146.036-.134.352-.475.352v.062l-.171.061-.061.109c-.524.45-1.181.889-1.168.877l-.171.061c-.123.098-.05.231-.269.231.086 0-.194.11-.206.121l-.062.123-.169.047c-.111.062-.123.196-.295.196l-.06-.013c-.048.108-.316.292-.438.292h-.062l-.463.05-.389-.073-.073.012c-.023 0-.462-.451-.5-.561-.06-.134-.06-.342-.06-.487l.012-.986.122-.585c.073-.073.061-.195.17-.522l.062-.061.037-.182zm1.499-.815c.134 0 .182-.159.268-.232.036-.024.172-.061.172-.109 0-.073.352-.415.412-.415.05 0 .194-.134.23-.17l.062-.062.401-.414.182-.11c.086-.292.634-.645.877-1.059.159-.268.463-.401.463-.804 0-.183-.134-.341-.292-.426-.012.049-.049.074-.098.074l-.146-.024-.159.134c-.134 0-.157.159-.243.232-.061.047-.243.084-.243.157l.012.074c.025-.036-.413.378-.413.499l.012.061-.074.061.012.084-.182.11c-.109.158-.109.365-.171.475-.024.036-.108.024-.121.109l-.024.061-.012-.013c-.061 0-.548.926-.658 1.121-.098.184-.145.415-.267.586z" fill="#FF7968"/><path stroke="#FF7968" stroke-width=".23" stroke-miterlimit="10" d="M125.895 23.955s-.028 1.166 1.166 1.166c0 0 .766-.103.766-1.042 0 0-.262-1.958-2.553.21-2.418 2.288-8.623 2.593-8.594 1.269 0-.892 1.151-1.229 1.306-.615.153.615-6.661 2.378-8.806 2.378-1.297 0-5.863.003-7.245-2.993" fill="none"/><path d="M181.013 27.138l.061-.047c.072-.183.413-.597.377-.597l.073.012.013-.122.475-.462c.121-.122.207-.268.354-.353.035-.025.182-.037.182-.086l-.012-.073h.05c.084 0 .498-.414.596-.488.072-.06.34-.133.462-.231l.122-.121.171-.048.122-.123h.096l.085-.06.342-.109.121-.122c.159-.085.354-.098.524-.17-.073-.098-.451-.305-.464-.305h-.073c-.109 0-.4-.39-.511-.523l-.012-.414c0-.39.023-.78.121-1.157l.061-.109v-.122c.072-.061.183-.426.231-.536l-.012-.073.133-.158.172-.463c.134-.207.304-.511.535-.816.159-.207.438-.425.464-.523.011-.085.924-.95 1.059-1.059l.268-.146.122-.074.134-.133.354-.109c.157-.158.426-.134.646-.231.183-.268 1.192-.292 1.546-.292.292 0 1.241.194 1.241.584 0 .048.244.389.244.596 0 .097.011.195.06.28-.071 0-.049.122-.06.17l.011.048c0 .183-.29.633-.474.95l-.354.402c-.268.401-.729.56-1.107.816-.305.158-.658.256-1.011.256-.085 0-.633-.062-.633-.366l.072-.012c.233 0 .233.195.622.195 1.034 0 1.583-.803 1.825-.827 0-.135.123-.244.232-.293 0-.219.072-.158.183-.292l-.012-.086.121-.085c.146-.159.122-.548.354-.767v-.524l-.06-.048c-.159-.292-.196-.463-.366-.597l-.11.013-.183-.122c-.109-.062-.669-.062-.816-.062-.449 0-.876.232-1.326.523-.194.123-.316.317-.535.415 0 .366-.682.499-.817 1.047-.194.037-.363.426-.462.584l-.182.231c-.073.146-.024.329-.294.462l.014.085c0 .074-.086.146-.122.208l.013.085-.486.792.048.073c-.22.219-.231.498-.28.755-.146.159-.22.876-.22 1.107 0 .22.099.341.28.463h.123c.097 0 .193-.012.279-.061.158-.084.621-.109.827-.17 0-.074.694-.183 1.047-.183.22 0 .889.037 1.06.122-.012.243-.645.292-.706.354l-.146.121-.062-.012c-.219 0-.608.183-.608.183-.158.037-.365.037-.523.037-.207 0-.414-.097-.476-.097-.085.097-.327.073-.462.121l-.305.11c-.269.098-.498.304-.633.353l-.086-.012-.158.133-.072-.012-.037.012v.061l-.122.109-.072-.012c-.086 0-.293.317-.341.366l-.073-.012c-.062 0-.476.463-.536.536-.45.524-.828 1.132-1.278 1.631-.097.11-.207.499-.207.464l-.073.146-.012.061c-.073.366-.157.548-.293.889l.013.134-.062.524.049.596.171.305c0 .28.207.353.207.45l.099.086c0 .048.084.061.121.061.061.037.365.206.438.206.365 0 .754-.169 1.144-.255.024-.061.293-.184.366-.184l.621-.327c.108 0 .231-.27.401-.27l.195-.183c.206-.085.572-.474.584-.474.134 0 .475-.439.597-.537.23-.182.426-.329.584-.645l.036-.024c.023-.012.048-.22.195-.22l.122-.121c.121-.049.256-.268.243-.243.109-.073.256-.329.523-.561.305-.268.707-.888.889-.888l.086-.097c.292-.354.597-.414.9-.718l.061.122c0 .073-.401.316-.522.463-.269.304-.635.608-.926.876l-.158.146c-.024.159-1.096 1.243-1.254 1.437-.05.062-.207.147-.207.219l-.243.221-.074.121c-.06 0-.328.28-.377.341-.255.158-.45.427-.718.584l-.049.074c-.304.206-.621.425-.913.657-.23.17-.658.34-.89.401-.121.121-.4.206-.559.206l-.231.086-.172-.024-.194.073c-.122 0-.257-.024-.365-.062-.194-.073-.451-.011-.608-.17-.317-.316-.598-.341-.781-.693-.047-.086-.181-.158-.181-.244l.023-.073c-.17-.012-.268-.475-.305-.608l.049-.171c0-.086-.109-.073-.109-.219l.024-.292-.049-.146c0-.194.195-.402.244-.621l-.061-.061c0-.134.341-.499.341-.536l-.05-.084c.013-.133.207-.329.22-.366l.059-.126zm6.916-3.517l-.013-.037-.099.012-.304-.074c-.17.195-.56.123-.706.171-.025.17-.389.048-.414.244l.681.012c.123 0 .855-.158.855-.328zm1.497 2.422c.329-.268.656-.645 1.01-.876l.438-.231c.305.074.767.061.767.487 0 .109-.073.475-.12.56l-.123.122c-.098.184-.061.414-.182.584-.159.232-.147.305-.232.524l-.061.061.012.073-.121.159c-.122.218-.158.522-.231.753l.073.062c.097 0 .183-.269.328-.293.11-.024.317-.231.477-.401l.4-.415.244-.17c.342-.305.693-.596 1.047-.876l.184-.061.047-.122.184-.06c-.037.024.316-.354.609-.354.023 0 .145.012.145.061 0-.048.488.146.536.208l.049.085c0 .304-.049.547-.17.827l-.024.024c-.086.085-.146.183-.146.316-.061.097-.268.45-.354.827-.072.354-.182.694-.182 1.048 0 .255 0 .523.121.754l.377.013c.366 0 .816-.109.963-.353.146-.085.255.023.304-.183l.061.012.11-.121c.352-.172.269-.221.522-.415l.354-.23c.072-.062.243-.305.329-.305l.084.012c.11-.146.305-.231.439-.354l.146-.133c.024-.073.049-.134.135-.157.243-.087.692-.731.912-.731l.073-.146.158-.061c.085-.109.646-.682.926-.804.098 0 .304-.231.378-.231l.035.037c0 .206-.644.572-.827.755-.427.438-.865.779-1.34 1.169-.158.121-.828.596-.828.693l.012.036c0-.048-.303.267-.462.39-.206.158-.414.268-.585.476-.085.084-.279.303-.316.303l-.086-.011-.059.108-.232.061-.121.123c-.354.231-.755.352-1.182.352l-.279-.012-.062-.061c-.134 0-.255.072-.279.072-.025 0-.05-.072-.159-.072l-.377-.231-.354-.231c-.023-.194-.036-.402-.036-.597 0-1.083.133-1.461 1.034-2.91l-.023-.036c-.281 0-.464.329-.682.45l-.293.231-.184.062c-.034.025-.071.207-.23.231-.145.024-.23.354-.402.354-.145 0-.437.536-.582.646l-.245.109-.17.23-.231.122c-.109.086-.146.171-.292.231h-.122l-.086.036c-.219 0-.619-.193-.791-.328.024-1.278.609-1.887 1.047-2.983-.133.012-.475.305-.57.39-.05.048-.366.426-.621.426l-.016-.11zm18.98-.816c0 .146-.329.354-.438.39-.304.305-.779.645-1.314.645-.439 0-.73-.401-1.084-.609-.182.122-.12.414-.232.584-.023.061-.145.195-.182.231-.194.207-.219.548-.401.767l-.256.341-.085.17-.014.014c-.012.098-.255.365-.353.523l-.219.39-.256.194.012.086-.353.378-.243.292c-.11.134-.354.475-.463.487v-.013l.012.073c0 .086-.146.061-.193.098l.011.085-.011.036-.074-.013c-.085 0-.048.147-.097.185l-.354.121c-.134.073-.158.159-.327.159-.28 0-.585-.172-.84-.28-.159-.391-.255-.731-.255-1.158 0-1.352.852-2.581.852-3.92l-.012-.182c-.379.122-.659.426-1 .621l-.389.22-.146-.025-.049.012c.098-.292.523-.414.768-.584l.171-.183.23-.109c.073-.048.342-.268.354-.292.28.109.584.109.876.17.122.207.244.536.244.681l-.061.074s.061.134.061.219l-.122.841c0 .316-.036.353-.122.632l.025.159c0 .085-.074.194-.134.255l-.061.464s-.464 1.473-.476 2.166l.061.013.122-.072.085.012.036-.012c.062-.221.391-.257.524-.403l-.013-.085c.536-.475.925-1.083 1.412-1.618l.231-.232-.012-.085c0-.183.365-.39.427-.56l-.013-.072.013-.038c.279-.341.523-.706.584-.815.097-.158-.037-.134.182-.353.086-.231.062-.353.231-.524.037-.048.049-.146.049-.268l-.012-.243c0-.195.024-.402.135-.548.121.049.328.037.413.122.146.134.024.366.146.366l.024.048c.037.219.182.511.292.707l.061-.024.195.073c.28 0 .535-.121.79-.219.062-.013.877-.511.975-.597l.062.032zm1.924 7.123h-.049l-.243.182c-.293.049-.279.426-.4.621-.024.049-.305.305-.305.463v.061l-.024.062c-.159 0-.231.522-.304.633l-.123.108.012.062c0 .049-.193.354-.303.523-.171.268-.244.28-.414.476l-.171.292c-.146.17-.354.304-.524.462l-.122.184-.17.048-.242.231-.231.061c-.158.109-.366.257-.621.257l-.354-.013-.146.013c-.183 0-.28-.415-.28-.549 0-.158.012-.328.06-.486l.111-.292v-.073c0-.048.255-.305.292-.365l.06-.184.232-.17.06-.183c.184-.232.476-.562.743-.755l.316-.231.292-.184.293-.243.17-.061.121-.109c.136-.073.5-.244.585-.353l.062-.184.109-.049.122-.341.062-.061c.206-.049.133-.462.292-.646l.4-.755.231-.547.048-.036.074-.293.122-.11c-.013-.341.425-.632.523-1.217.061-.366.219-.522.304-.828-.122.012-.353.183-.474.402-.086.158-.501.269-.586.353l-.061.171-.183.061-.292.184-.341.341-.184.061c-.182.157-.498.474-.707.474-.083 0-.303-.048-.303-.085v-.012l-.036-.024c-.293-.061-.597-.657-.597-.937 0-.184.072-.476.121-.646.208-.184.184-.475.354-.694.035-.048.183-.146.183-.207l-.012-.074c.133-.133.706-.779.706-.888v-.06c.242-.378.596-.633.645-1.109l-.098-.049c-.269 0-.645.269-.729.269-.16 0-.11.182-.22.182 0-.023-.584.512-.949.536.133-.097.23-.231.353-.353.122-.122.28-.183.413-.292l.231-.231c.146-.11.694-.28.877-.28.353 0 .876.097.876.547 0 .171-.073.33-.121.487l.013.073c0-.061-.05.268-.256.475l.036.074-.061.023c-.109 0-.779 1.279-.9 1.461l-.109.109.011.073-.133.171.012.062-.012.049c-.257.291-.293.692-.403 1.059l.121.049c.025 0 .317-.147.342-.17-.06.06.353-.402.707-.586.305-.157.561-.34.803-.512.317-.206.535-.547.84-.693.134-.183.292-.28.463-.426l.17-.292c.098-.097.208-.182.293-.292.255-.305.305-.694.706-.877l.074.013.121-.049.28.072.023-.036.136.11c0 .414-.28.827-.452 1.108l-.12.122.012.073c0 .025-.206.463-.242.512-.037.049-.146.049-.146.122l.012.049h-.05l.013.098c0 .096-.269.62-.328.717-.038.062-.135.402-.183.415-.062.219-.207.449-.317.644-.109.195-.109.451-.23.646l-.062.049-.012.024-.086.195c-.231.536-.499 1.047-.791 1.546l.231-.074m-4.859 4.806l.171.061.317-.135c.205-.024.328-.206.462-.34.122-.109.316-.22.414-.353l.049-.184.121-.048c.098-.11.232-.451.232-.451 0-.122.157-.146.182-.194l.11-.292.243-.354-.012-.098c.036 0 .121-.17.121-.219 0-.194.487-.73.524-1.023-.524.159-1.072.609-1.34.877l-.086-.011c-.084 0-.316.34-.388.413-.062.061-.172.061-.172.182 0 .098-.438.513-.523.634l-.122.244-.121.048.013.086-.062.158c-.072.305-.135.62-.135.937v.062h.002z" fill="#FF7968"/><path stroke="#FF7968" stroke-width=".198" stroke-miterlimit="10" d="M208.369 33.493c0-1.606 6.956-1.741 6.956-1.741s1.991-.048 1.991-1.989c0-.886-1.535-.366-1.535.284 0 1.12 2.777 1.657 7.718 1.657s8.436-.377 8.436-1.498" fill="none"/></svg>