<svg xmlns="http://www.w3.org/2000/svg" width="260.408" height="42.692" viewBox="36.725 6.02 260.408 42.692" enable-background="new 36.725 6.02 260.408 42.692"><path fill="#fff" d="M84.976 22.126c-.048-.024-.389-.608-.389-.682l.024-.219c0-.196-.341-.853-.341-1.389 0-.146.121-.268.121-.315l-.048-.438c0-1.681.342-3.335.633-4.845l.098-.098v-.609c.219 0 .073-.341.195-.438h.122c.098-.267.098-.584.219-.851l-.024-.147c.146-.024.171-.389.219-.585.389-.096.268-.535.438-.73.292-.292.365-.657.632-.973.147-.195.39-.367.512-.608l.097-.415c.195-.292.608-.463.853-.731.073-.096.024-.243.122-.314.048-.098.218-.049.292-.124.17-.119.219-.365.316-.412.123-.074.317-.049.438-.097.731-.269 1.461-.464 2.216-.634 0 .049.024.098.073.098 0-.049.073-.098.122-.098.122 0 .414.17.535.218l.512.074.219.22c.512 0 1.486.804 1.486.828l-.025.121c.171.147.39.244.537.415l.122.34.219.099c.146.147.073.51.414.828.243.901.292 1.873.292 2.8l-.195 2.873-.097.123.097.292c-.219.219-.317.536-.317.634l.098.146c-.048.121-.17.244-.17.389 0 .097.098.122.17.122-.073.243-.341.195-.413.511-.172.876-.585 1.998-.853 2.531-.195.367-.438 1.414-.609 1.875-.122.317-.657 1.729-.657 2.02.146-.242.17-.267.365-.437l-.024-.17.048-.05.608-.852c.048-.098.122-.219.195-.317l-.024-.146c0-.122.293-.171.342-.269l-.025-.145c0-.147.293-.245.341-.488.024-.244 1.169-1.583 1.169-1.583l-.024-.146c0-.17.463-.657.535-.778l-.024-.147c0-.17.341-.389.438-.51l.341-.828.195-.098c.195-.243.171-.462.438-.73l-.025-.147.341-.34-.025-.22c.146-.218.317-.049.317-.462.073-.074.195-.121.219-.219l-.024-.122c0-.073.584-.584.657-.706l-.024-.146c0-.267.292-.342.438-.486l.122-.317.22-.098.072-.317.219-.097c.073-.098.024-.268.122-.34.389-.39 1.144-1.145 1.169-1.243.073-.341.95-.9.95-1.023 0-.048.341-.195.39-.243.17-.147.243-.365.414-.537l.17.026c.073 0 .122-.172.171-.221.122-.121.901-.51.828-.51l.123-.073c0-.17.9-.656 1.07-.755l.292-.074.244-.218c.17-.073.414-.048.608-.073.292-.17.365-.17.707-.17 1.022 0 1.802.268 2.385 1.022.122.073.317.292.389.389l-.024.123c0 .217.342.73.342 1.168l-.048.243c.048 0 .097.05.097.098-.024.049-.024.169-.024.292 0 .465.121.634.121.95 0 .096-.146.049-.146.341 0 .609-.414 1.511-.803 2.167l-.098.049.048.072c-.122.073-.098.562-.171.609-.074.049-.219.024-.267.097v.22l-.024.219c-.415.218-.366.802-.683 1.094.463.366 1.463.537 2.046.754.754 0 1.559 1.414 1.559 1.389-.292.269-.73.292-1.12.292l-.584-.023c0-.172.243-.219.462-.219l.341.024c0-.147.123-.147.123-.243 0-.414-1.048-1.242-1.389-1.242-.219 0-1.192-.366-1.461-.463-.949.659-1.802 2.412-2.216 2.412-.317.462-.536.95-1.095 1.144 0 .122-.122.317-.219.413l-.17-.023-.073.195c-.17.17-.292.146-.414.365-.074.147-.389.171-.511.293-.122.121-.146.341-.366.341-.146.146-1.145.608-1.145.704-.048.099-.462.245-.56.27l-.244.074c-.049.047-.122.047-.194.047h-.147c-.317.196-.778.22-1.047.464h-.487c-.097.073-.268.099-.438.099-.098 0-.195 0-.268-.026-.219.026-.438.05-.657.05-.706 0-1.169-.731-1.169-1l.048-.218-.048-.268.463-1.145c.097-.682 1.241-1.679 1.168-1.607.292-.292.731-.853 1.144-.853.243-.414 1.071-.803 1.705-.973.073-.073.316-.271.414-.293.707-.121 1.388-.561 1.729-.561s.536-.145.828-.17l.195.025c.341-.122 1.267-.122 1.631-.122.194-.146.098-.341.194-.512.244-.34.608-.755.853-1.216l-.024-.147c0-.218.17-.072.243-.218.39-.804.731-1.608 1.121-2.436l.024-.122c.292-.145.463-2.118.463-2.434 0-.657-.366-1.704-1.145-1.704l-.803-.048c-.415 0-.95.195-1.339.464-.097.145-.73.388-.974.559-.097.073-.413.414-.511.438-.243.243-.608.388-.901.607-1.851 1.413-2.897 2.922-2.825 2.922l-.146.024.024.146c0 .147-.146.098-.219.17-.146.196.048.172-.317.415l-.317.438c0 .366-.364.536-.51.828l-.22.438c-.024.073-.048.269-.122.293l-.121-.024c-.147 0-.122.438-.365.438l.048.048c0 .121-.195.316-.292.39-.024.415-.098.438-.438.73l.025.147c0 .098-.219.121-.219.17l.024.147-.097.196-.024.072c-.122 0-.17.341-.219.438-.853.854-.73 1.559-1.363 2.095 0 .292-.316.364-.316.412-.122.317-.098.683-.536.732-.049.487-.56.949-.731 1.388l-.22.194c-.048.098-.024.219-.097.316-.39.561-.755 1.242-1.169 1.777-.098.122-.073.537-.195.705-.074.146-.269.171-.269.367v.049s-.244.34-.462.803c0 .048-.365.439-.414.681-.098.414-.925 1.779-.95 2.07l-.316.535c-.098.147-.049.366-.123.537-.413.414-.657 1.047-.901 1.583-.56.561-1.145 2.045-1.631 2.8l-.049.098.024.097c-.706.366-.414 1.315-1.363 1.315-.268 0-.804-.146-.804-.486 0-.342.146-.633.195-.95l-.098-.073c0-.438.804-1.34.974-1.875l-.025-.193c0-.146.195-.146.219-.222l.828-1.775.073-.098c.123-.219.098-.658.244-.853 0 0 .438-.73.438-1.12l-.024-.146c.779-.536 2.021-4.479 2.192-4.554.097-.268.097-.584.22-.852.121-.121.608-1.485.657-1.485.098 0 .974-2.824.925-2.483.122-.927.292-.998.414-1.388.219-.681.512-1.972.512-1.874l.243-.584-.049-.414.024-.171c.414-.244.488-2.776.488-3.312 0-.852-.146-1.728-.488-2.776-.121-.365-.633-.511-.73-1.072l-.122.025c-.292 0-.244-.292-.512-.341-.195-.024-.462-.244-.535-.414-.536.121-1.217.121-1.68.414-.487.315-1.046.219-1.486.753-.049.074-.024.318-.146.318l-.121-.025c-.17 0-1.533 1.826-1.728 2.629-.706.535-.731 1.607-.95 2.118-.463.513-.146 1.462-.609 1.778.048.073.073.17.073.268 0 .341-.244.585-.292.901-.097.682-.17 1.509-.17 2.167l.048.244s-.098.17-.098.315l.098.316-.098.195.098.122-.098.317.098.268-.098.146.098.414c.025.244.17 1.219.487 1.219m.607.601v-.024m15.242-4.43c0 .122-.779.389-.852.537-.074.17-.098.073-.22.145.024 0-.656.658-.656.707 0 0-.877.682-1.023 1.363h-.098c-.268.39-.414.951-.414 1.413 0 .341.195 1.12.633 1.12 1.121 0 2.241-.316 3.141-.998.195-.171.341-.292.56-.438.073-.367.414-.317.511-.438.195-.268-.024-.122.365-.438.317 0 1.072-1.146 1.193-1.291l1.022-1.193.123-.365c.341 0 1.023-1.144 1.12-1.412.146-.146.098-.122.146-.292-.122-.025-.269-.049-.389-.049-.537 0-1.34.244-1.462.244h-.292c-.73 0-2.167.78-3.092 1.242l-.317.048v.095zm22.354 8.304c-.291.169-.365.414-.608.583-.171.146-.39.219-.585.341l-1.071.973c-.292.244-1.51.731-1.875 1.462l-.34.098c-.244.097-.609.78-.95.78l-.829.341c-.828.364-1.753 1.289-2.655 1.289-.024.023-.097.171-.146.171-.438 0-.365-.269-.755-.269-.098 0-1.071-.755-1.071-.949l.049-.049c-.122-.243-.195-.511-.195-.778 0-.584.292-1.023.56-1.828.342-.754.683-1.508 1.217-2.142l.585-.704c.39-.487.95-.876 1.291-1.389-.755-.048-1.047-.462-1.681-.73-.413.537-1.07 1.12-1.557 1.655l-1.048 1.146c-.048.219-.73.511-.926.975-.389.022-.024.535-.657.583v.121l-.317.146-.097.218c-.634.634-1.364 1.146-2.095 1.68-.218.439-.292.221-.414.366-.171.195-.146.511-.463.511.098.024-.17-.022-.438.293-.243.27-.585.658-1.096.682 0 .414-.974.365-1.241.438-.244.121-.536.243-.853.243-.194 0-.559-.074-.779-.098l-.146.049c-.17 0-.584-.536-.706-.682-.049-.22-.073-.413-.073-.633 0-.221.048-.537.317-.537.316 0 .56.342.633.608.243.829.973.486 1.314.634.634-.098 1.241-.438 1.729-.512.17-.024 1.046-.901 1.534-1.313.365-.293.803-.537 1.071-.927.219-.121.683-.219.683-.536 0-.17.803-.634.974-.779l.219-.365.877-.829c.462-.487.949-1.145 1.363-1.486.853-.706.999-1.315 1.826-1.899-.219-.537-.315-1.095-.315-1.655 0-.512.17-1.339.365-1.339v-.242c.39-.292.511-.78.706-.924l.341-.122c.146-.075.462-.488.998-.488.048 0 1.121.17 1.364.488l-.024.097.048.389c0 .706-.729.78-.729 1.144 0 .244-.829.877-.829.95l.024.172c0 .122-.536.291-.536 1.046 0 .584.292.609.292.804l-.024.073c.146-.024.292-.024.438-.024.634 0 1.314.194 1.923.365-.049.342 0 .608-.365.732v.121c0 .073-.633 1.095-1.048 1.364l-.122.462-.754 1.168c-.341.561-.414 1.265-.779 1.802-.098.147-.488 1.34-.488 1.511 0 .193.049.486.316.486.708 0 1.121-.415 1.656-.803.244-.171.609-.22.854-.415.366-.292.852-.51 1.266-.754.024-.073.073-.269.17-.269l.122.049.535-.366c.366-.267.633-.754 1.023-.877l.146-.048c0-.291.316-.217.463-.315.098-.073.073-.244.195-.244l.171.025c.147-.196.608-.438.608-.56v-.073c0-.05.561-.342.852-.634h-.243l.146-.049c0-.269.317-.218.462-.317.123-.072.342-.439.659-.51l.146-.121c0-.147.218-.22.292-.342v.171c.122-.025.146-.243.315-.243.317 0 .853-.927 1.122-.927.317 0 .097-.242.365-.242h.097c0-.364.146-.244.292-.463v.585c-.536.12-.292.292-.461.463l-.585.34-.463.488c-.316.244-.706.438-1.071.608-.097.388-.219.34-.511.511zm-7.621-6.283c-.122.269-.244.828-.244.998 0 .073.025.147.123.17.536-.705 1.072-1.144 1.193-2.093-.074-.025-.22-.074-.292-.074-.317 0-.56.438-.56.706l.024.171c-.073.049-.195.049-.244.122zm16.414 4.018c-.243 0-.854 1.412-1.048 1.631-.048.074-.073-.048-.122.122-.12.39-2.775 2.459-3.262 2.8-.098.073-.219.244-.317.244l-.17-.024c-.511.755-1.583 1.119-2.313 1.119-.511 0-.974-.314-1.413-.535-.243-.122-.705-.073-.705-.512v-.121l-.123-.049c-.073-.193-.073-.438-.073-.657 0-.658.219-1.146.537-1.924.073-.146.488-.463.706-.705.316-.317.56-.779.926-1.048l.584-.34c.195-.17-.024-.245.365-.245.097-.072.097-.17.243-.242.194-.121.463-.121.682-.22.147-.073.268-.242.438-.315.561-.317 1.339-.365 1.973-.365l1.095.147.243-.05c.244 0 .829.025 1.047.122.171.075.122.342.486.342l.221.825zm-.805-.122c-.656-.34-1.095-1.048-2.118-1.048-.268.365-.438.195-.706.341l-.22.244c-.122.073-.341 0-.486.098-.122.072-.342.461-.463.583-.511.512-.998.853-1.291 1.534-.342.122-1.388 2.095-1.388 3.263.121.098.292.146.462.146 1.097 0 2.824-1.459 2.922-1.533.39-.39.755-.365.95-.828.342-.292 1.29-.877 1.388-1.29.048-.22.535-.659.705-.805.098-.072.048-.365.123-.486.098-.025.122-.123.122-.219zm.44 1.071c0-.073.901-.756 1.291-1.022.803-.536 2.531-1.924 2.581-2.095.048-.146.267-.121.365-.219.098-.075.074-.218.146-.317.122-.146.366-.194.512-.316l.414-.56c.121-.098.413-.194.486-.292.073-.097.048-.267.146-.342l.244-.097c.171-.171-.048-.146.389-.438v-.122l.023-.121.074.024.024-.123c0-.366 1.265-1.971 1.899-1.971.292 0 .634.023.634.414 0 .269-.244.681-.342.949l-.609 1.582c-.804 1.804-1.168 3.458-3.068 8.278l.146.025c.462 0 .413-.292.583-.56.438-.147.219-.269.414-.415.365-.243.292-.317.51-.536.488-.487 1.122-.802 1.632-1.29.073 0 .512-.464.633-.537.098-.048.317-.024.365-.048.072-.049-.024-.12.121-.12.317 0 .707-.489 1.218-.489.317 0 .269.124.463.171.17.049.56 0 .683.074.243.341.778.291.998.658l-.024.218c.098.097.292.17.342.269l-.024.146c.268.292.244 1.412.536 1.412.681 0 .9-.584 1.167-.584.609 0 1.291-.803 1.632-1.12.755-.73 1.777-1.29 2.484-1.972 0 0 .218.121.268.121-.048.147-.438.365-.56.487-1.559 1.68-2.361 2.241-2.776 2.484l-.732.414c-.438.243-.803.779-1.339.779-.17 0-.317.316-.583.316-.122.463-.633 1.169-.609 1.121-.34.778-1.437 1.484-2.069 2.045-.366.315-.537.535-.999.73-.269.122-.56.122-.73.414-.269 0-1.437-.171-1.437-.537l.024-.268c0-.097-.049-.146-.146-.17 0-.927 1.875-1.803 2.047-1.924.389-.292.559-.342.974-.562.195-.096.316-.315.51-.437.122-.074.244-.026.366-.074.39-.171.39-1.68.39-2.069 0-.486-.048-1.144-.438-1.511l-.073.024-.536-.122c-.243 0-.779.659-1.072.659-.462 0-1.218.802-1.509 1.045-.146.124-.342.146-.487.293-.048.049-.951.999-1.072 1.072l.024.171c0 .34-.999.925-1.168 1.168 0 .366-.755.876-.804 1.097-.098.269-.269 0-.269.389l-.048.048c-.244 0-2.167 5.625-2.922 7.767l-.852 2.461c-.171.559-.366 1.046-.633 1.581-.243.438-.413 1.339-.73 1.681l-.146.121c-.098.561-.269.414-.512.754l-.292.561c-.292.365-.852.829-1.169 1.192l-.121.343-.268.096c-.048.049-.048.244-.146.341-.585.634-1.242.998-2.435 1.193l-.877-.779.024-.122-.097-.487c0-.242.122-.341.171-.559.073-.342.219-1.583.39-1.826.243-.366.268-.732.461-1.121.487-.95.902-1.874 1.511-2.801.658-.998 1.437-1.923 2.143-2.873.365-.511.803-1.121.803-1.243 0-.146.316-.292.414-.412 1.023-1.219.828-1.438 1.485-2.096v-.097c0-.365.219-.56.317-.876.559-1.754 1.314-3.432 1.972-5.163l.121-.12c.098-.122.243-.829.316-1.023.195-.51.488-.95.608-1.484h.024c.048 0 .463-.974.585-1.341l1.047-2.945-.072-.098c-.074 0-.124.146-.146.195l-.074-.025c-.169 0-.096.317-.292.317-.681 0-1.289.999-1.655 1.242-1.048.683-1.753 1.315-2.581 1.924-.195 0-.195.268-.438.292-.048-.043-.168-.214-.169-.287zm-.731 11.956c-.024.146-.537.559-.537.607 0 .342-.146.195-.268.366-.073.12-.073.34-.169.485-.098.171-.317.195-.366.415-.049.218-.537.413-.537.73 0 .365-1.095 1.388-1.217 1.606-.073.122-.073.293-.122.438-.876.683-.511.852-1.12 1.776-.585 1.121-1.218 2.68-1.218 4.067 0 .341.098.827.608.827.487 0 1.388-.949 1.461-1.192.097-.292.389-.194.389-.414l.098-.218.073-.121h.098l.048-.074-.024-.12c0-.074.195-.195.243-.244l.073-.073c.172 0 .341-.996.39-1.169h.123v-.121l.023-.122c.317-.633.609-1.996.829-2.728h.049c.121 0 .048-.17.098-.243l.169-.657c.073-.291.195-.537.292-.804.39-1.242.706-2.532 1.169-3.773-.196 0-.196.218-.292.316-.094.195-.315.195-.363.44zm11.055-7.378c-.122 0-.633.438-1.072.754l-.511.194c-.122.098-.146.439-.366.439l-.122-.025c-.024.171-.048.341-.048.512 0 .099.023.243.097.315.414 0 .511-.243.852-.39.366-.146.634-.097.634-.486.146-.196.39-.219.51-.365l.146-.438s.463-.342.366-.342l.048-.342-.098-.024c-.146 0-.195.146-.269.245l-.167-.047zm15.439-6.283c.559 0 1.095-.097 1.654-.17.073.049.17.073.243.073.098-.096.269-.122.462-.122h.27c.316 0 .316-.12.486-.17l.122.074c.219-.146.537-.268.876-.268h.073c-.048-.219-.098-.439-.098-.657 0-.707.561-1.681 1.339-1.681.511 0 .609.243.951.585l-.024.097.048.391-.608 1.363c0 .486.707 1.898.707 1.898l-.024.17c.171.342.486.78.486 1.68.292.268.219 1.583.243 1.999.512 0 .732-.343 1.193-.464.414-.121.414.024.804-.366l.583-.218c.656-.244 1.314-.828 2.045-.998.876-.659 1.998-1.388 2.92-2.046.391-.291.9-1.071 1.363-1.071.073 0 .073.098.073.146l-.023.268-1.071.732c-.438.316-.779.876-1.243 1.144l-.363.098c-.244.17-.194.389-.585.389v.147c0 .049-.024.098-.146.146l-.146-.024c-.22.269-.317.292-.657.414l-.098.097-.073-.048c-.269.099-.778.633-.902.633l-.291-.048c-.17 0-.194.17-.315.243-.779.342-1.679.707-2.58 1.168-.195.099-.219.293-.488.365-.048 1.292-.365 2.338-.828 3.604-.048.098-.243.39-.243.463l.024.172c0-.122-.366.633-.487.779-1.12 1.119-1.85 1.947-3.288 2.434-.217.074-.437.244-.681.244-.268 0-.341-.024-.583.122l-.099-.051-.267.051c-.512 0-1.729-.487-1.998-1.218l.024-.221-.122-.193c0-.316.074-.61.219-.877v-.195c.244 0 .171-.438.244-.584.048-.073.243-.024.243-.146v-.196c.147 0 .267-.341.342-.463.461-.706 1.339-1.315 2.094-1.754.219-.121 1.146-.705 1.339-.705.024 0 .268.074 1.122-.463.291-.194.12.172 1.167-.584-.171-1.51-.072-4.018-.924-5.259l-.243-1.192c-.075.048-.221.17-.318.17l-.291-.048c-.048 0-.219.146-.243.193l-.268-.073.024.073-.049.049-.268.074-.171-.023c-.047.072-.122.072-.193.072h-.171l-.219-.049c-.51.218-1.875.242-2.436.242l.099.343c-.243 0-.854 1.412-1.048 1.631-.048.074-.073-.048-.122.122-.122.389-2.776 2.458-3.264 2.8-.098.072-.217.243-.316.243l-.171-.024c-.146.219-.754.705-1.046.828-.098.049-.925.195-1.047.219-.049.05-.147.073-.219.073-.512 0-.974-.314-1.413-.536-.243-.121-.706-.072-.706-.512 0 0-.194-.243-.194-.827 0-1.023.317-1.68 1.242-2.629.316-.317.559-.779.925-1.048.171-.146.438-.194.584-.341.196-.169-.024-.244.366-.244.097-.073.097-.17.243-.242l.683-.22c.146-.073.269-.242.438-.315.561-.317 1.339-.366 1.972-.366l1.096.147.243-.05c.267 0 .828.025 1.046.122.171.075.122.342.488.342.145.067.317.067.463.067zm-1.049.634c-.658-.34-1.095-1.048-2.118-1.048-.27.365-.438.195-.706.341l-.22.244c-.122.073-.341 0-.486.098-.123.072-.342.461-.463.583-.512.512-.999.853-1.292 1.534-.341.122-1.387 2.095-1.387 3.263.122.098.292.146.463.146.537.024 1.851-.803 2.337-1.069.536-.317.95-.78 1.535-1.073v-.218c.34-.292 1.29-.877 1.388-1.29.048-.219.537-.659.705-.805.098-.072.048-.365.122-.486.099-.026.122-.124.122-.22zm5.553 6.38c-.511.268-.9.509-1.168.585-.852.193-2.239 1.119-2.922 1.971l-.122.342c-.098.12-.366.146-.366.315l.024.172c-.073.072-.268.048-.268.17l.026.17-.244.122c-.098.122-.073.608-.122.804-.048.146-.244.218-.244.363 0 .586.756 1.17.778 1.17l.171.024v.098l.073.023.171-.023c0 .171.073.171.195.171.438 0 1.097-.05 1.437-.414.342-.171.73-.146.974-.511l-.048-.146c0-.098.292-.121.366-.17 1.656-1.655 1.168-1.875 1.754-3.265 0-.073.048-.121.12-.121.098-.365.244-1.729.244-2.095l-.024-.121c-.096 0-.266.173-.339.244l-.466.122zm.801-8.838c0 .146 0 .268.024.413h.098l.024.073-.024.243c.341-.122.487-.706.487-1.022 0-.244-.122-.415-.364-.463-.219.146-.245.511-.245.756zm20.48 3.067c-.366.316-.512.51-.974.828l-.073.194c-.242 0-.657.538-.999.609-.705.706-1.803 1.047-2.533 1.608l-.463.098-.122.243c-.097.071-.463 0-.582.242-.803-.218-1.608-.412-2.339-.828-.121-.219-.121-.51-.121-.755 0-.243 0-.536.121-.755l-.073-.073c-.342 0-.925.804-1.218.997l-.341.124c-.291.219-.024.34-.585.34-.293.146-.146.269-.584.269-.414 0-1.412-.049-1.607-.269l-.292.024c-.609 0-.683-.56-.683-.951.608-.949 1.389-2.191 2.458-2.678.269-.314 1.559-.778 2.362-.778.537 0 1.438.244 1.513.876.267-.34.606-.486 1.022-.486.29 0 .605.073.852.267 0 1.121-.998 2.751-1.169 4.091.12.073.244.097.389.097.852 0 3.167-1.632 3.945-2.216l.075.024c.51-.438 1.07-.828 1.607-1.243.291-.218.73-.705.974-.705.048 0 .218.024.218.097l-.022.074-.756.635zm-8.303-1.219c0 .1-.073.1-.146.1h-.122c-.147 0-.219.192-.314.266-.124.074-.245.023-.366.121l-.219.342c-.732.585-.952.828-1.413 1.632-.074.096-.243.243-.243.365 0 .219-.365.584-.365.926 0 .193.243.193.389.193.365 0 .365-.12.681-.317.147-.072.466-.12.586-.218l.121-.245.343-.12.363-.341c.366-.341 1.512-.876 1.512-1.413-.004-.974-.223-.949-.807-1.291zm8.474-.243l.294-.778.024-.098.048-.195c.073-.415.195-.511.39-.779l.123-.365.216-.22c.125-.195.101-.486.245-.706.071-.098.169-.12.219-.243l.121-.342.242-.121c.391-.462.78-1.461 1.267-2.094.464-.61 1.022-1.073 1.511-1.632.194-.219.242-.39.461-.585.317-.292.465-.073.611-.487l.145.023c.146 0 1.193-.852 2.192-.852.342 0 .683.05 1.022.146 0 .342.513.122.513 1.291 0 .048-.413.802-.853 1.265-.317.341-.537.706-.828 1.047-.366.438-1.363 1.535-1.315 1.535-.366 0-.342.584-.681.584-.243 0-.414.073-.464.342.023-.171-1.534 1.558-2.093 1.996-.1.074-.489.171-.489.292l.024.171c-.267.146-.267-.097-.487.463l-.218.243c-.122.219-.145.464-.244.682-.048.098-.242.17-.242.292 0 .122.071.122-.221.998-.047.146-.267.195-.267.341l.047.267-.023.099c-.291 1.071-.462 1.899-.462 3.043 0 .584.535.803 1.022.803.317 0 .562-.438.854-.463l.023-.023.315-.122c.219-.072.413-.171.585-.316.146-.121.828-.705.95-.705.193 0 .898-.803 1.169-.803-.074 0 1.167-.61 1.167-.829 0-.169.877-.56 1.048-.706l.243-.34.342-.122c.17-.146.291-.34.462-.463.391-.291.854-.585 1.17-.949l.12.023.316-.096.098.048c0 .194-.707.633-.755.732.023-.024-.292.412-.585.461-.292.073-.268.706-.949.706v.123l-.341.122-.122.218c-1.048.9-2.362 1.778-2.337 1.753l-.34.122c-.245.194-.099.462-.537.462.17 0-.39.221-.413.243l-.122.244-.34.097c-.221.121-.245.39-.587.39l-.121-.024c-.097.219-.634.584-.876.584h-.122l-.927.099c-.216 0-.558-.122-.776-.146l-.147.023c-.049 0-.925-.9-1.001-1.121-.118-.268-.118-.682-.118-.973l.024-1.972.242-1.17c.146-.146.121-.389.341-1.046l.122-.121.075-.366zm2.997-1.63c.267 0 .364-.318.535-.463.073-.049.343-.122.343-.219 0-.147.704-.829.825-.829.1 0 .391-.269.462-.341 0-.147.074-.074.125-.122l.803-.828c.073-.074.34-.122.364-.221.17-.583 1.266-1.289 1.753-2.118.317-.535.925-.803.925-1.607 0-.366-.268-.683-.583-.853-.024.098-.098.147-.195.147l-.292-.049-.317.268c-.267 0-.316.317-.487.464-.12.095-.486.169-.486.315l.023.147c.05-.072-.826.755-.826.998l.022.122c0 .049-.146.023-.146.122l.023.169-.364.22c-.218.316-.218.729-.342.95-.048.072-.218.049-.243.219l-.048.122-.024-.024c-.119 0-1.095 1.851-1.315 2.241-.197.365-.293.829-.535 1.17z"/><path stroke="#fff" stroke-width=".461" stroke-miterlimit="10" d="M84.855 20.543s-.057 2.333 2.333 2.333c0 0 1.531-.205 1.531-2.085 0 0-.523-3.916-5.106.421-4.836 4.574-17.245 5.185-17.188 2.537 0-1.783 2.304-2.458 2.611-1.229.307 1.229-13.321 4.756-17.611 4.756-2.595 0-11.726.006-14.491-5.985" fill="none"/><path fill="#fff" d="M195.09 26.91l.121-.096c.147-.366.829-1.193.757-1.193l.145.024c0-.049 0-.22.025-.244l.949-.925c.243-.243.413-.536.707-.707.071-.048.363-.073.363-.171l-.022-.146h.098c.17 0 .997-.828 1.192-.975.146-.121.681-.268.925-.462.122-.073.172-.195.243-.243l.342-.097.243-.245h.192c.122 0 .1-.097.171-.121l.682-.219.244-.244c.317-.17.707-.194 1.047-.34-.146-.194-.9-.608-.926-.608h-.146c-.221 0-.803-.779-1.023-1.047-.023-.268-.023-.56-.023-.828 0-.78.048-1.558.243-2.313.096-.05.12-.122.12-.219v-.244c.146-.122.365-.853.463-1.072l-.024-.146c0-.098.22-.219.269-.317l.342-.927c.269-.412.608-1.021 1.071-1.631.316-.414.876-.851.926-1.046.023-.17 1.851-1.899 2.118-2.118.146-.122.364-.195.535-.293l.244-.147c.146 0 .17-.218.268-.267.195-.123.512-.073.707-.219.315-.316.852-.268 1.29-.462.367-.535 2.386-.583 3.092-.583.585 0 2.485.389 2.485 1.168 0 .098.485.779.485 1.193 0 .195.024.39.121.561-.145 0-.097.243-.121.341l.024.097c0 .366-.583 1.267-.949 1.899l-.706.804c-.536.803-1.46 1.122-2.216 1.632-.608.317-1.315.512-2.021.512-.171 0-1.268-.122-1.268-.732l.147-.024c.464 0 .464.39 1.243.39 2.067 0 3.165-1.606 3.65-1.654 0-.27.245-.488.464-.586 0-.438.146-.317.366-.584l-.024-.171c0-.122.17-.097.243-.171.293-.317.243-1.094.706-1.533v-1.046c-.049 0-.098-.049-.121-.097-.316-.584-.39-.926-.731-1.195l-.22.025-.365-.244c-.218-.123-1.339-.123-1.631-.123-.9 0-1.753.464-2.653 1.047-.39.244-.633.633-1.072.828 0 .732-1.362.998-1.632 2.094-.39.074-.729.852-.925 1.169-.096.171-.291.269-.365.462-.146.292-.049.658-.585.925l.025.171c0 .147-.171.292-.244.415l.026.17-.975 1.583c0 .049.022.121.097.146-.438.438-.463.997-.561 1.51-.292.317-.438 1.753-.438 2.215 0 .438.195.682.561.925h.244c.194 0 .389-.024.561-.121.315-.17 1.24-.219 1.654-.341 0-.146 1.388-.365 2.095-.365.438 0 1.776.074 2.117.244-.022.487-1.289.583-1.412.707 0 .024-.389.243-.292.243l-.122-.024c-.438 0-1.216.365-1.216.365-.318.075-.731.075-1.048.075-.413 0-.828-.194-.949-.194-.172.194-.657.145-.926.242l-.61.22c-.536.195-.996.608-1.264.706l-.172-.023c-.121 0-.195.218-.317.267l-.145-.024-.073.024v.121l-.245.218-.146-.024c-.17 0-.585.634-.681.732l-.146-.025c-.121 0-.95.926-1.072 1.073-.9 1.046-1.656 2.262-2.557 3.262-.193.219-.414.999-.414.926 0 .073-.146.146-.146.291l-.023.122c-.147.731-.315 1.095-.585 1.777l.024.269c0 .364-.122.607-.122 1.046l.098 1.193.341.607c0 .561.413.707.413.902l.196.17c0 .097.171.122.243.122.121.074.73.413.876.413.73 0 1.511-.34 2.289-.511.049-.121.585-.365.731-.365l1.241-.657c.22 0 .464-.536.804-.536.17 0 .221-.293.39-.366.414-.17 1.146-.949 1.17-.949.268 0 .949-.877 1.192-1.071.462-.364.853-.658 1.167-1.291l.073-.048c.049-.024.098-.438.392-.438l.242-.243c.244-.098.512-.536.487-.486.22-.147.512-.658 1.047-1.122.609-.535 1.414-1.775 1.777-1.775.048 0 .146-.147.171-.195.584-.707 1.193-.829 1.802-1.437.05 0 .099.194.123.243 0 .147-.805.633-1.047.925-.537.609-1.268 1.217-1.852 1.753l-.315.291c-.05.317-2.193 2.486-2.509 2.874-.099.122-.415.293-.415.438l-.486.438-.146.243c-.12 0-.656.561-.754.682-.511.317-.902.853-1.437 1.169l-.098.146c-.608.414-1.242.853-1.827 1.314-.461.342-1.314.683-1.777.804-.242.242-.802.413-1.118.413-.221 0-.317.172-.463.172l-.343-.049c-.171 0-.121.146-.39.146-.243 0-.512-.048-.73-.121-.39-.146-.902-.023-1.217-.341-.634-.634-1.195-.682-1.561-1.387-.096-.172-.363-.317-.363-.488l.048-.146c-.341-.024-.536-.952-.609-1.219.049-.097.098-.242.098-.341 0-.172-.219-.146-.219-.438l.048-.584-.096-.292c0-.389.389-.804.486-1.243l-.121-.121c0-.268.682-.997.682-1.071 0-.072-.025-.146-.1-.17.025-.267.415-.657.44-.731l.124-.246zm13.832-7.035l-.025-.074-.195.024c-.218 0-.389-.098-.607-.147-.342.389-1.12.244-1.413.342-.049.34-.778.097-.827.487l1.361.024c.244.001 1.706-.316 1.706-.656zm2.995 4.845c.657-.537 1.314-1.291 2.021-1.753.269-.172.607-.269.876-.463.609.147 1.534.122 1.534.973 0 .22-.146.95-.242 1.121l-.244.243c-.195.367-.122.829-.365 1.168-.316.464-.293.609-.464 1.046-.048 0-.121.075-.121.123l.024.147c0 .12-.195.218-.243.317-.243.436-.315 1.045-.463 1.508.024.049.074.122.147.122.193 0 .364-.537.657-.585.219-.049.633-.464.95-.803l.804-.829c.146-.146.315-.218.485-.34.685-.609 1.389-1.193 2.095-1.753l.366-.122.096-.243.365-.121c-.073.049.634-.707 1.219-.707.048 0 .291.024.291.122 0-.098.976.291 1.072.415 0 .072.024.145.098.17 0 .608-.098 1.094-.342 1.655l-.048.048c-.171.171-.293.366-.293.633-.121.194-.535.9-.705 1.656-.146.705-.365 1.387-.365 2.094 0 .511 0 1.047.243 1.51l.755.024c.73 0 1.631-.219 1.924-.707.291-.169.51.05.607-.363l.121.022c.195 0 .098-.219.22-.243.706-.342.537-.438 1.047-.828l.706-.463c.146-.122.485-.609.657-.609l.171.024c.219-.293.609-.462.877-.707l.291-.267c.05-.146.098-.267.269-.314.488-.173 1.388-1.462 1.825-1.462.147 0 .024-.219.147-.292.098-.074.218-.074.315-.122.17-.219 1.291-1.363 1.851-1.608.195 0 .608-.461.756-.461l.071.073c0 .413-1.288 1.146-1.653 1.511-.854.876-1.73 1.558-2.681 2.338-.315.243-1.654 1.191-1.654 1.386l.021.074c0-.098-.606.534-.923.778-.414.315-.829.536-1.17.95-.171.171-.559.608-.634.608l-.171-.024-.119.219c-.146.099-.317.049-.464.121l-.242.244c-.707.463-1.51.705-2.363.705-.194 0-.365 0-.559-.023l-.122-.122c-.269 0-.512.146-.561.146s-.098-.146-.317-.146c-.341 0-.388-.462-.754-.462-.194-.22-.512-.269-.707-.463-.048-.389-.071-.804-.071-1.192 0-2.167.267-2.923 2.069-5.82l-.049-.073c-.561 0-.927.657-1.364.9-.242.17-.39.317-.585.462l-.365.122c-.071.05-.145.415-.462.463-.291.049-.462.706-.804.706-.291 0-.875 1.072-1.167 1.292-.146.097-.342.097-.488.218-.146.121-.17.341-.341.463l-.463.243c-.219.171-.293.342-.584.463h-.243c-.049.048-.097.072-.171.072-.438 0-1.241-.389-1.583-.656.049-2.557 1.218-3.774 2.094-5.966-.267.024-.949.609-1.143.78-.1.096-.731.852-1.242.852l-.023-.218zm37.961-1.632c0 .292-.658.706-.876.779-.608.609-1.56 1.291-2.631 1.291-.877 0-1.46-.804-2.165-1.218-.366.243-.243.828-.466 1.169-.047.121-.29.39-.364.461-.389.414-.437 1.096-.802 1.536-.195.219-.342.438-.512.681l-.171.341-.024.024c-.023.195-.51.73-.704 1.047l-.439.779c-.17.122-.365.243-.512.389l.024.172s-.632.658-.705.755l-.487.584c-.22.268-.706.95-.927.975v-.024l.026.146c0 .171-.293.121-.389.194l.021.172-.021.073-.147-.025c-.171 0-.098.293-.195.367l-.707.243c-.267.146-.315.316-.655.316-.561 0-1.17-.342-1.68-.561-.317-.78-.511-1.461-.511-2.313 0-2.704 1.704-5.162 1.704-7.842 0-.121 0-.243-.023-.364-.757.243-1.317.853-1.998 1.243l-.779.438-.292-.049-.098.024c.195-.583 1.047-.828 1.534-1.169l.342-.365s.315-.121.462-.219c.146-.096.683-.536.707-.584.561.219 1.168.219 1.752.34.243.415.489 1.073.489 1.364l-.124.147c0 .048.124.268.124.438l-.246 1.68c0 .634-.072.706-.243 1.266.025.098.05.219.05.316 0 .171-.147.39-.268.51l-.122.928s-.927 2.945-.949 4.334l.12.024c.147 0 .147-.074.243-.146l.172.023.072-.023c.122-.438.78-.512 1.047-.805l-.024-.17c1.071-.95 1.852-2.167 2.824-3.237.146-.172.342-.269.464-.464l-.024-.171c0-.364.73-.778.853-1.12l-.024-.145.024-.075c.561-.682 1.048-1.413 1.169-1.631.195-.316-.075-.268.365-.706.17-.462.121-.706.463-1.048.073-.096.096-.291.096-.535l-.022-.488c0-.389.048-.803.269-1.095.243.098.656.073.827.243.293.268.049.732.293.732l.048.096c.073.438.364 1.022.584 1.413l.121-.048c.147 0 .147.146.39.146.562 0 1.071-.243 1.582-.437.122-.026 1.753-1.023 1.948-1.195l.117.073zm3.85 14.245h-.1l-.485.365c-.585.098-.56.852-.803 1.241-.049.098-.609.609-.609.927v.121c0 .049 0 .122-.049.122-.316 0-.463 1.046-.607 1.266l-.244.219.023.121c0 .099-.389.707-.605 1.048-.343.536-.489.561-.83.95l-.34.583c-.293.342-.707.609-1.05.925l-.242.367-.341.097c-.192.121-.267.366-.485.463l-.464.122c-.316.218-.731.511-1.241.511l-.707-.024-.291.024c-.365 0-.561-.828-.561-1.096 0-.316.024-.657.12-.973.051-.147.221-.464.221-.585v-.146c0-.098.511-.609.584-.731l.122-.366.463-.34c.098-.122.048-.27.12-.366.365-.464.95-1.122 1.486-1.51l.633-.464.583-.365.587-.487.34-.121.242-.219c.271-.146.999-.487 1.17-.706.075-.098.024-.269.122-.365l.22-.099c.074-.072.17-.56.243-.682.048-.048.096 0 .122-.121.413-.097.267-.925.585-1.289 0-.292.438-.657.802-1.512l.46-1.095c0-.048.076-.072.1-.072.072 0 .098-.513.146-.585l.243-.22c-.023-.681.853-1.265 1.048-2.435.121-.73.438-1.045.606-1.655-.242.024-.704.366-.947.804-.171.316-.999.536-1.172.705-.072.075-.072.294-.12.342l-.364.121-.585.367c-.268.169-.412.486-.683.682l-.365.12c-.365.316-.998.949-1.413.949-.169 0-.607-.096-.607-.169v-.024l-.073-.049c-.585-.121-1.193-1.314-1.193-1.875 0-.366.147-.949.243-1.29.414-.365.366-.949.709-1.388.071-.098.363-.292.363-.415l-.021-.146c.267-.267 1.412-1.558 1.412-1.776v-.121c.486-.756 1.192-1.266 1.289-2.217-.049-.071-.121-.097-.195-.097-.535 0-1.29.537-1.46.537-.318 0-.219.364-.439.364 0-.048-1.167 1.023-1.898 1.071.267-.193.462-.461.705-.705.245-.244.561-.366.828-.585.171-.146.291-.34.463-.462.291-.219 1.388-.56 1.754-.56.705 0 1.752.194 1.752 1.096 0 .341-.147.658-.243.973l.024.146c0-.122-.098.537-.511.951l.072.146-.121.048c-.219 0-1.558 2.557-1.802 2.921l-.218.22.022.146c0 .22-.219.147-.268.343l.023.121-.023.098c-.511.584-.585 1.388-.805 2.119.074.048.147.097.243.097.05 0 .635-.293.683-.341-.121.12.705-.804 1.413-1.17.609-.314 1.121-.682 1.606-1.023.634-.412 1.071-1.095 1.681-1.386.267-.366.584-.561.925-.853l.34-.584c.195-.195.414-.364.585-.583.512-.609.611-1.39 1.413-1.753l.146.024.243-.097c.075 0 .464.121.562.145l.047-.071c.049 0 .171.219.271.219 0 .827-.561 1.655-.902 2.215l-.243.244.023.146c0 .05-.412.927-.484 1.024-.073.097-.291.097-.291.242l.023.099h-.1l.024.195c0 .193-.536 1.241-.656 1.435-.074.123-.27.805-.365.829-.124.438-.415.899-.634 1.289-.218.389-.218.9-.462 1.291-.026.049-.122-.023-.122.098l-.024.048-.171.391c-.464 1.071-.999 2.093-1.582 3.092.072-.024.438-.099.462-.147m-9.719 9.613c.099.071.219.121.342.121.269 0 .39-.245.633-.269.412-.049.657-.413.926-.682.243-.22.633-.438.828-.705l.098-.366.242-.098c.195-.219.464-.9.464-.9 0-.244.314-.292.363-.39l.22-.583c.171-.27.293-.464.487-.707l-.024-.195c.073 0 .244-.341.244-.438 0-.39.973-1.461 1.047-2.046-1.047.315-2.143 1.218-2.68 1.754l-.17-.024c-.17 0-.633.681-.777.827-.123.122-.342.122-.342.365 0 .194-.878 1.023-1.048 1.268l-.242.485-.244.098.024.172-.122.315c-.145.608-.268 1.242-.268 1.873l-.001.125z"/><path stroke="#fff" stroke-width=".397" stroke-miterlimit="10" d="M249.803 39.618c0-3.211 13.913-3.479 13.913-3.479s3.981-.097 3.981-3.981c0-1.771-3.07-.73-3.07.569 0 2.241 5.556 3.315 15.437 3.315 9.88 0 16.871-.755 16.871-2.996" fill="none"/></svg>