<svg xmlns="http://www.w3.org/2000/svg" width="65" height="65.325" viewBox="0 0 65 65.325"><path fill="#FF6A5D" d="M6.792 42.918c-.635-.635-.952-1.417-.952-2.349v-31.357c0-.93.317-1.714.952-2.349s1.417-.952 2.349-.952h48.496c.931 0 1.714.317 2.349.952s.952 1.418.952 2.349v31.357c0 .932-.317 1.714-.952 2.349s-1.418.952-2.349.952h-11.553l2.412 14.346c.169.846.02 1.607-.444 2.285-.466.676-1.123 1.1-1.968 1.27h-.508c-.762 0-1.418-.234-1.968-.698-.551-.466-.911-1.079-1.079-1.841l-2.539-15.362h-13.33l-2.666 15.361c-.085.762-.403 1.375-.952 1.841-.551.464-1.206.698-1.968.698h-.508c-.847-.17-1.503-.594-1.968-1.27-.466-.678-.615-1.439-.444-2.285l2.412-14.346h-11.425c-.933.001-1.714-.316-2.349-.951zm4.888-5.903h42.91v-24.883h-42.91v24.883zm35.039-16.187c0 .805-.275 1.503-.825 2.095-.551.593-1.206.889-1.968.889-.508 0-.974-.127-1.396-.381l-4.316 2.158c.508.508.762 1.101.762 1.777 0 .847-.297 1.545-.889 2.095-.593.551-1.27.825-2.031.825s-1.44-.274-2.031-.825c-.593-.549-.889-1.248-.889-2.095 0-.422.127-.845.381-1.27l-8.887-1.65-2.666 4.062c.083.254.127.508.127.762 0 .593-.17 1.059-.508 1.396-.339.339-.784.508-1.333.508-.551 0-.996-.168-1.333-.508-.339-.337-.508-.782-.508-1.333 0-.549.168-1.016.508-1.396.337-.381.762-.571 1.27-.571h.127l2.158-3.428c-1.27-.591-1.904-1.607-1.904-3.047 0-1.016.337-1.861 1.016-2.539.676-.676 1.501-1.016 2.476-1.016.972 0 1.819.339 2.539 1.016.718.678 1.079 1.523 1.079 2.539 0 .762-.212 1.44-.635 2.031l8.887 1.523 5.205-2.539c-.085-.337-.127-.676-.127-1.016 0-.845.274-1.543.825-2.095.549-.549 1.226-.825 2.031-.825.803 0 1.48.276 2.031.825.548.553.824 1.23.824 2.033zm-21.074.064c0-.422-.149-.782-.444-1.079-.297-.295-.657-.444-1.079-.444-.424 0-.784.149-1.079.444-.297.297-.444.657-.444 1.079 0 .424.147.784.444 1.079.295.297.655.444 1.079.444.422 0 .782-.147 1.079-.444.295-.296.444-.655.444-1.079zm10.41 5.586c-.593 0-.889.297-.889.889 0 .593.295.889.889.889.591 0 .889-.295.889-.889-.001-.592-.298-.889-.889-.889zm7.871-6.475c-.593 0-.889.297-.889.889 0 .593.295.889.889.889.591 0 .889-.295.889-.889-.001-.592-.298-.889-.889-.889z"/></svg>