<svg xmlns="http://www.w3.org/2000/svg" width="65" height="65.325" viewBox="0 0 65 65.325"><path fill="#FF6A5D" d="M60.684 47.742c-.508.552-.762 1.206-.762 1.968v8.125c0 .762.254 1.396.762 1.904s1.143.762 1.904.762h1.778v2.666h-58.272c-1.523 0-2.815-.508-3.872-1.523-1.059-1.016-1.587-2.285-1.587-3.809v-8.125c0-1.523.528-2.812 1.587-3.872 1.057-1.058 2.349-1.587 3.872-1.587h58.272v2.666h-1.778c-.762 0-1.397.275-1.904.825zm-54.971 10.093v-8.125c0-1.016.254-1.945.762-2.793h-.381c-.762 0-1.418.275-1.968.825-.551.552-.825 1.206-.825 1.968v8.125c0 .762.274 1.396.825 1.904.549.508 1.206.762 1.968.762h.381c-.508-.848-.762-1.736-.762-2.666zm2.666-38.975c-.17-.762-.043-1.438.381-2.031.508-.591 1.226-.845 2.158-.762l1.904.254c.845-2.2 2.2-4.189 4.062-5.967.083-.676-.212-1.353-.889-2.031-.932-1.016-1.44-2.073-1.523-3.174-.085-.676.083-1.27.508-1.777.591-.591 1.565-.889 2.92-.889 1.27 0 2.686.254 4.253.762 1.565.508 2.771 1.186 3.618 2.031 1.607-.508 3.638-.845 6.094-1.016.422-.083.803-.127 1.143-.127 3.215 0 6.431.635 9.648 1.904 3.809 1.523 6.771 3.725 8.887 6.602l.508.762c.423.508.762 1.101 1.016 1.777 1.185-.508 2.241-.635 3.174-.381.337.17.677.381 1.016.635.677-.337 1.312-.464 1.904-.381 1.016.085 1.733.593 2.158 1.523.423.932.337 1.736-.254 2.412-.171.254-.361.297-.571.127-.212-.168-.234-.381-.063-.635.423-.422.464-.93.127-1.523-.254-.676-.762-1.057-1.523-1.143-.339 0-.72.085-1.143.254.845 1.016 1.099 2.031.762 3.047-.254.678-.679 1.016-1.27 1.016-.254 0-.466-.042-.635-.127-1.27-.422-1.821-1.143-1.65-2.158.169-.762.635-1.396 1.396-1.904-.171-.168-.339-.295-.508-.381-.762-.254-1.608-.168-2.539.254.762 1.863 1.143 3.767 1.143 5.713 0 4.062-1.608 7.703-4.824 10.918v10.664h-2.158c-1.187 0-2.138-.02-2.856-.063-.72-.042-1.567-.19-2.539-.444-.974-.254-1.672-.698-2.095-1.333-.424-.635-.635-1.501-.635-2.603v-.635c-3.555.848-7.153.975-10.791.381v.254c0 1.102-.234 1.968-.698 2.603-.466.635-1.186 1.079-2.158 1.333-.974.254-1.799.402-2.476.444-.678.044-1.65.063-2.92.063h-2.031v-9.268c-2.456-1.861-4.233-4.104-5.332-6.729h-.508c-.762 0-1.44-.254-2.031-.762-.593-.508-.932-1.099-1.016-1.777l-1.144-5.712zm18.027 38.975v-8.125c0-1.016.21-1.945.635-2.793h-16.377c-.593 0-1.123.297-1.587.889-.466.594-.698 1.229-.698 1.904v8.125c0 .762.274 1.396.825 1.904.549.508 1.163.762 1.841.762h15.996c-.424-.848-.635-1.736-.635-2.666zm-16.123-2.285h14.854v-3.682h-15.235l.381 3.682zm.381-37.197l1.143 5.84c.083.424.337.635.762.635h2.031l.381.762c.93 2.625 2.666 4.868 5.205 6.729l.508.381v8.125c2.285 0 3.787-.146 4.507-.444.718-.296 1.079-.866 1.079-1.714v-3.174l1.523.381c4.146.932 8.293.762 12.441-.508l1.523-.381v3.682c0 .848.381 1.418 1.143 1.714.762.298 2.242.444 4.443.444v-9.395l.381-.254c3.047-2.876 4.57-6.094 4.57-9.648 0-2.454-.72-4.739-2.158-6.855l-.508-.635c-1.862-2.539-4.487-4.485-7.871-5.84-3.047-1.099-5.967-1.65-8.76-1.65h-1.016c-2.285.17-4.36.551-6.221 1.143l-.76.251-.508-.635c-.424-.591-1.355-1.163-2.793-1.714-1.44-.549-2.709-.824-3.809-.824-.678 0-1.059.043-1.143.127-.17.339.168.974 1.016 1.904 1.184 1.27 1.607 2.709 1.27 4.316v.381l-.254.254c-2.031 1.863-3.386 3.936-4.062 6.221l-.254 1.016-3.809-.635zm8.379-1.905c0-.508.168-.93.508-1.27.337-.337.762-.508 1.27-.508s.952.17 1.333.508c.381.339.571.762.571 1.27s-.19.952-.571 1.333-.825.571-1.333.571-.932-.19-1.27-.571c-.34-.381-.508-.825-.508-1.333zm9.014-3.808c-.339-.845-.085-1.438.762-1.777.337-.168.762-.337 1.27-.508.508-.168 1.438-.359 2.793-.571 1.353-.21 2.666-.274 3.936-.19 1.27.085 2.686.488 4.253 1.206 1.565.72 2.983 1.714 4.253 2.983.591.678.55 1.355-.127 2.031-.254.254-.551.381-.889.381-.424 0-.762-.168-1.016-.508-1.016-1.016-2.158-1.797-3.428-2.349-1.27-.549-2.412-.867-3.428-.952-1.016-.083-2.075-.042-3.174.127-1.101.17-1.863.339-2.285.508-.424.17-.762.297-1.016.381-.932.339-1.567.085-1.904-.762zm3.808 45.195v-8.125c0-1.016.21-1.945.635-2.793h-1.396c-.678 0-1.186.297-1.523.889-.339.594-.508 1.229-.508 1.904v8.125c0 .762.254 1.396.762 1.904s1.099.762 1.777.762h.888c-.424-.848-.635-1.736-.635-2.666zm11.553-6.094v-2.285h13.838c0-.846.254-1.691.762-2.539h-20.82c-.762 0-1.396.275-1.904.825-.508.552-.762 1.206-.762 1.968v8.125c0 .762.254 1.396.762 1.904s1.143.762 1.904.762h20.82c-.508-.848-.762-1.736-.762-2.666h-13.838v-2.285h13.838v-3.809h-13.838zm13.203-34.658c-.425.424-.635.847-.635 1.27 0 .424.381.72 1.143.889 1.099.085 1.099-.803 0-2.666l-.508.507z"/></svg>