<svg xmlns="http://www.w3.org/2000/svg" width="202.749" height="202.749" viewBox="23.625 23.625 202.749 202.749" enable-background="new 23.625 23.625 202.749 202.749"><circle opacity=".13" stroke="#bbb" stroke-width="2.749" stroke-miterlimit="10" enable-background="new" cx="124.999" cy="124.999" r="100" fill="none"/><path opacity=".13" stroke="#bbb" stroke-width="1.29" stroke-dasharray="2.5718,2.5718" enable-background="new" d="M124.615 219.083c-51.938 0-94.188-42.251-94.188-94.189 0-51.941 42.25-94.201 94.188-94.201 51.937 0 94.19 42.26 94.19 94.201 0 51.937-42.253 94.189-94.19 94.189z" fill="none"/><path opacity=".13" fill="#bbb" enable-background="new" d="M79.648 170.795l-.453 5.064-.08.158-2.756 2.756c-.07.068-.164.095-.241.068-.08-.024-.123-.101-.116-.191l.435-4.847-4.844.439c-.085.007-.165-.037-.19-.118-.025-.077 0-.171.066-.241l2.761-2.758c.043-.043.104-.074.157-.074l5.065-.457c.12-.008.208.084.196.201zm-.58 1.684l-.268.788.075-.095h.124l.069-.693zm-.102 1.117l-.215.74.123-.031.029.015.063-.724zm-.199 2.214l.098-1.161-.602 1.501-.117.271.621-.611zm-.762.763l-.038-.013c-.066-.014-.094-.072-.076-.14l.265-.912-.212.526-.391.981-.007.014.459-.456zm-.603.593l-.083-.016c-.042-.026-.053-.08-.034-.13l.331-.984-.307.754c-.167.413-.257.649-.327.784l-.007.019.427-.427zm-.426.429l-.006.007.006-.007zm-.136.139l-.043-.004c-.066-.016-.088-.024-.063-.163h-.004l.003-.011c.032-.125.101-.34.231-.744l.58-1.795.244-.742-1.244 3.085-.066.732.362-.358zm-.185-1.541l.4-1.217-.378.941-.013.146-.009.13zm.188-2.771l.007.005.006.013.057-.195-.07.177zm-4.695.343l4.416-.396.126-.795-.255.638c-.032.07-.107.115-.174.102-.05-.015-.076-.022-.069-.161l.082-.672.007-.045-.328.816c-.028.065-.094.114-.161.104-.063-.012-.095-.062-.085-.125l.111-.568c-.087.22-.243.379-.24.649-.049.049-.107.099-.17.088-.07-.006-.116-.075-.107-.143l.091-.558c-.272.672-.282.684-.328.703l-.101.018c-.042-.007-.066-.015-.061-.171.003-.128.025-.349.067-.745-.36.909-.372.92-.426.947l-.101.017c-.073-.017-.091-.023.013-.885l-.334.83-.072.085-.099.015c-.049-.009-.075-.017-.066-.149h-.003l.003-.014c.007-.104.031-.29.083-.61-.302.765-.322.771-.369.8l-.101.017c-.07-.017-.084-.021-.035-.617l-.224.56c-.025.058-.084.103-.145.097-.063 0-.108-.045-.104-.108l.003-.198-.094.236c-.029.07-.104.113-.174.099-.069-.022-.098-.088-.069-.161l.145-.352-.652.652zm1.115-1.109l-.003.146.091-.242-.088.096zm.549-.551l-.052.496.3-.741-.248.245zm.622-.626l-.087.091.034.146v.007l-.079.606c.148-.38.233-.572.278-.673v-.003l.083-.116.129-.004.049.107-.098.801.341-.863c.025-.066.095-.104.157-.102.069.007.114.062.108.132l-.083.85c.12-.299.196-.69.384-.886.048-.044.07-.132.136-.125s.083.045.069.107l-.097.561c.268-.675.283-.682.331-.706l.098-.017c.047.01.069.017.056.167h.01l-.01.019-.072.488.249-.616c.029-.066.104-.111.174-.095.05.015.068.019.068.158v.003l-.084.696.328-.808c.025-.062.091-.106.158-.101.063.008.104.063.09.132l-.17.979c.429-1.092.457-1.104.509-1.136l.101-.021c.113.027.123.027-.348 1.728.432-1.076.605-1.479.684-1.641l.01-.027h.006l.07-.088.098-.018c.062.016.095.082.07.148l-.373 1.087.474-1.174c.029-.066.104-.107.167-.101.07.013.101.08.08.15l-.881 2.645 1.108-2.738c.031-.069.104-.117.177-.102.041.014.069.019.053.151l.01.006-.029.072c-.063.316-.312 1.088-.95 3.031l.893-2.215c.025-.069.101-.117.167-.097l.028.017.098-1.048-4.772.436zm.742 3.79l-.46 5.063-.075.157-2.76 2.759c-.066.069-.168.095-.241.069-.076-.021-.125-.098-.113-.185l.432-4.846-4.849.436c-.083.007-.154-.037-.185-.119-.028-.075.004-.171.066-.24l2.76-2.764.16-.075 5.062-.454c.123-.004.212.081.203.199zm-.536 1.128l-.764 2.581.098-.247.322-.792c.028-.065.076-.19.199-.16l.025.007.12-1.389zm-.216 2.372l-.157.857h.05l.032.013.006-.063.069-.807zm-.135 1.513l.029-.31-.116.306-.072.167.159-.163zm-.309.31l-.077-.013-.048-.115c.083-.436.181-.978.265-1.45l-.605 1.505-.275.676-.09.224.83-.827zm-.981.983l-.041-.007c-.061-.019-.088-.08-.073-.15l.854-2.857-1.539 3.813.799-.799zm-.624-3.084l-.018.184-.003.031.174-.597-.153.382zm-.322 3.55c.202-.582.425-1.219.656-1.867-.328.809-.511 1.268-.625 1.529l-.031.338zm.136-1.49l.352-1.063-.334.833-.006.098-.012.132zm-.132 1.968h-.048l-.006.048.054-.048zm-4.379-4.279l4.536-.409.022.004.032-.124-.029.019-.126.009-.05-.106.082-.832-.356.896c-.034.069-.107.116-.177.101-.038-.014-.063-.019-.067-.157-.003-.139.007-.397.042-.898-.237.58-.341.846-.401.968l-.003.01h-.004l-.072.115-.133.006-.053-.114.105-.719-.007.021c-.318.812-.318.812-.382.847l-.127.006-.053-.101.063-.947c-.421 1.061-.428 1.066-.485 1.099l-.098.016c-.083-.021-.101-.021.009-.836l-.312.783c-.029.062-.095.104-.155.098-.068-.008-.104-.059-.093-.129l.101-.632-.283.694c-.032.069-.104.118-.174.102-.057-.014-.076-.022-.066-.158v-.003l.046-.337-.173.432-.076.084-.098.013-.083-.079-.201-.303-.136.338c-.028.066-.101.117-.167.097-.067-.012-.098-.083-.069-.149l.031-.08-.36.355zm.849-.853l.173.259.287-.714-.46.455zm.908-.901l-.044.327.19-.474-.146.147zm.53-.532l-.104.103.049.1-.101.635.285-.697c.024-.063.09-.108.154-.101.062 0 .104.06.098.123l-.114.766.332-.829.072-.084.104-.018c.08.02.095.025.032 1.032l.003-.007c.398-1.022.398-1.022.47-1.063l.101-.017c.053.013.083.064.076.119l-.101.719.316-.784.069-.08.101-.019c.085.019.085.019.063.383l-.037.697.416-1.041c.028-.062.091-.105.154-.097.063.006.101.051.098.121l-.087.837c.117-.301.313-.578.359-.907.047-.047.098-.113.164-.1.066.012.101.071.084.146l-.278 1.021.257-.643.181-.419v-.017h.006c.07-.148.096-.143.177-.122.053.009.078.021.056.152l.014.009-.025.06c-.041.166-.123.47-.287 1.03l-.46 1.583 1.129-2.795c.028-.069.102-.114.171-.094.062.012.083.021.062.149l.006.005-.021.065c-.041.152-.13.417-.29.896-.129.4-.297.89-.473 1.407l.994-2.467.073-.083.098-.012c.048.006.08.012.06.149h.014l-.039.077c-.049.229-.202.701-.542 1.672l.59-1.457c.028-.069.097-.11.163-.099l.035.009.042-.452-4.769.439z"/><path opacity=".13" stroke="#bbb" stroke-width="2.103" stroke-miterlimit="10" enable-background="new" d="M71.466 178.578l105.115-105.124" fill="none"/><path opacity=".13" fill="#bbb" enable-background="new" d="M177.972 77.004l-5.035-5.035 10.579-5.407-5.544 10.442zm-6.729 94.408l5.104.498c.06.007.119.035.16.084l2.804 2.801c.066.065.095.164.066.242-.021.08-.102.123-.189.117l-4.884-.473.472 4.884c.016.086-.031.162-.109.186-.076.032-.179 0-.244-.066l-2.805-2.804-.076-.16-.493-5.107c-.018-.122.073-.213.194-.202zm1.697.603l.798.271-.091-.08-.01-.125-.697-.066zm1.132.109l.746.217-.031-.121.014-.028-.729-.068zm2.224.215l-1.166-.113 1.519.62.279.118-.632-.625zm.778.776l-.009.038c-.013.063-.077.095-.138.076l-.925-.271.533.215c.582.234.854.346.986.405l.019.006-.466-.469zm.607.607l-.019.084c-.024.043-.076.054-.129.035l-.994-.341.761.312c.413.174.655.269.79.337l.02.006-.429-.433zm.438.434l.008.012-.008-.012zm.138.143l-.006.037c-.016.067-.021.095-.163.067l-.011-.006c-.125-.028-.348-.103-.753-.242-.474-.148-1.119-.368-1.812-.595l-.75-.25 3.118 1.276.742.074-.365-.361zm-1.56.173l-1.226-.417.946.391.15.014.13.012zm-2.789-.212l.011-.008.012-.015-.201-.052.178.075zm.383 4.729l-.437-4.448c-.159-.023-.411-.064-.799-.139l.643.266c.068.031.115.107.104.173-.017.054-.018.074-.158.066h-.007l-.678-.088-.045-.006.83.338c.068.024.11.095.104.157-.008.07-.063.1-.127.085l-.574-.115c.225.091.385.251.662.247.045.047.095.108.086.174-.012.066-.073.118-.144.105l-.567-.103c.679.283.69.29.714.335l.021.101c-.01.044-.017.066-.177.063-.125-.004-.348-.025-.749-.069.921.372.927.382.96.429l.017.107c-.017.073-.022.092-.896-.024l.846.351.079.072.019.101c-.011.05-.019.075-.15.063v.006l-.015-.006c-.107-.008-.289-.032-.612-.086.767.313.777.325.808.377l.018.101c-.014.077-.018.091-.622.03l.564.234c.063.025.104.087.108.146-.004.063-.048.104-.115.104l-.195-.003.238.094c.068.032.113.11.097.177-.016.069-.084.098-.156.069l-.356-.145.661.661zm-1.124-1.125h.146l-.243-.098.097.098zm-.561-.563l.502.054-.751-.303.249.249zm-.635-.633l.095.098c.014-.032.045-.041.149-.032h.006c.108.008.297.032.609.086-.382-.157-.58-.241-.682-.291h-.011l-.112-.079c-.029-.041-.031-.095-.005-.132l.104-.049.812.104-.874-.354c-.066-.026-.104-.091-.101-.158.003-.063.065-.108.13-.101l.856.085c-.308-.124-.704-.198-.894-.394-.049-.046-.131-.07-.125-.134.01-.067.045-.082.107-.069l.562.101c-.68-.277-.688-.288-.711-.337l-.019-.099c.007-.046.014-.068.167-.056l.003-.007.02.011.483.072-.614-.251c-.069-.031-.117-.108-.101-.171.016-.054.018-.076.159-.07.117.005.335.035.711.089l-.812-.335c-.072-.025-.114-.098-.106-.157.006-.063.065-.104.128-.09l.99.179c-1.107-.448-1.114-.47-1.148-.523l-.018-.1c.028-.115.03-.123 1.74.359-1.085-.441-1.495-.617-1.658-.701l-.028-.01.003-.007-.091-.065-.018-.106c.016-.059.082-.093.149-.065l1.104.383-1.181-.483c-.069-.03-.117-.104-.104-.17.014-.065.076-.102.148-.075l2.676.902-2.768-1.13c-.072-.031-.119-.106-.101-.177.017-.045.019-.076.155-.057l.006-.014.065.031c.318.073 1.104.332 3.063.982l-2.233-.912c-.069-.027-.12-.107-.101-.171l.016-.031-1.06-.104.46 4.785zm3.81-.708l5.106.493c.063.003.12.035.164.083l2.805 2.797c.065.066.092.168.065.247-.021.08-.097.122-.183.117l-4.891-.474.477 4.883c.01.088-.042.165-.117.193-.078.028-.17 0-.239-.066l-2.807-2.807-.076-.158-.498-5.109c-.011-.129.079-.213.194-.199zm1.147.54l2.601.792-.247-.102-.797-.324c-.07-.027-.199-.08-.17-.198l.009-.032-1.396-.136zm2.387.237l.867.161v-.053l.014-.025h-.063l-.818-.083zm1.529.148l-.314-.027.309.119.171.076-.166-.168zm.312.313l-.017.079-.11.045-1.46-.278 1.52.625.684.281.227.101-.844-.853zm1 .997l-.011.041c-.013.06-.075.091-.142.072l-2.896-.877 3.857 1.577-.808-.813zm-3.106.608l.188.017.028.007-.6-.18.384.156zm3.582.351l-1.885-.673 1.55.642.335.031zm-1.504-.147l-1.076-.369.846.345.104.014.126.01zm1.984.147l.004.041h-.004l.051.01-.051-.051zm-4.277 4.383l-.445-4.581.004-.017-.123-.031.025.025.003.129-.107.05-.836-.099.905.37c.069.031.116.107.102.177-.014.038-.02.062-.157.07h-.004c-.136 0-.4-.018-.902-.049.586.239.851.351.982.411h.009v.002l.117.077.004.132-.11.053-.727-.11.023.014c.815.321.815.321.854.383l.007.13-.103.054-.954-.067c1.072.433 1.076.445 1.114.499l.017.097c-.017.083-.022.102-.84-.012l.783.321c.069.023.111.094.104.156-.006.069-.06.101-.128.088l-.635-.105.703.292c.067.03.117.109.105.173-.017.055-.025.082-.164.068l-.344-.055.441.185.083.066.018.101-.082.088-.307.192.34.142c.07.031.121.107.105.178-.019.065-.084.094-.16.065l-.076-.034.356.372zm-.863-.867l.261-.175-.726-.295.465.47zm-.918-.921l.327.052-.472-.201.145.149zm-.536-.536l.104.104.101-.051.638.102-.707-.29c-.068-.025-.111-.094-.101-.153.003-.066.059-.104.122-.095l.771.113-.84-.337-.085-.073-.016-.104c.018-.083.022-.095 1.04-.022h-.012c-1.032-.41-1.032-.41-1.07-.482l-.021-.098c.014-.054.066-.088.123-.079l.725.106-.79-.328-.083-.068-.017-.102c.017-.088.017-.088.384-.059l.696.041-1.044-.426c-.063-.024-.104-.091-.101-.154.007-.062.053-.107.116-.098l.847.098c-.303-.125-.582-.32-.913-.372-.049-.051-.113-.102-.101-.168.01-.065.073-.104.144-.084l1.029.29-.646-.271-.422-.181-.018-.003v-.004c-.15-.072-.145-.101-.124-.18.01-.054.019-.08.158-.054v-.014l.063.029c.173.038.476.132 1.041.296l1.596.471-2.818-1.15c-.069-.031-.116-.108-.101-.178.016-.056.021-.088.157-.06v-.01l.066.024c.15.041.422.133.905.296.401.136.899.303 1.419.486l-2.488-1.019-.084-.073-.02-.1c.012-.05.022-.083.158-.058l.003-.012.073.03c.233.06.708.217 1.69.567l-1.477-.605c-.066-.028-.111-.101-.097-.167l.009-.032-.453-.047.471 4.808z"/><path opacity=".13" stroke="#bbb" stroke-width="2.103" stroke-miterlimit="10" enable-background="new" d="M179.145 179.715l-106.249-106.261" fill="none"/><path opacity=".13" fill="#bbb" enable-background="new" d="M75.987 71.616l-5.037 5.036-5.525-10.7 10.562 5.664zm4.074 55.92c7.44-1.402 11.537-7.023 12.111-13.011.729-7.048-5.774-8.938-12.022-7.985-8.544 1.3-14.931 7.226-16.042 13.52-1.154 6.616 4.312 8.801 7.28 7 0 0 2.021 5.588-2.88 6.244-4.721.631-10.72-3.588-8.384-12.456 2.394-8.83 11.45-15.883 21.438-17.72 8.591-1.534 16.997.697 16.312 9.491-.748 9.298-8.79 15.662-18.047 17.563-1.814 16.714-7.595 24.027-15.297 22.235-5.741-1.334-8.317-10.259-3.031-15.75 4.327-4.396 8.047.801 8.047.801-7.39 3.511-8.169 12.282-3.981 13.171 5.576 1.136 9.789-8.155 9.44-26.111-.161-7.858.312-12.163 2.223-14.659 2.135-2.845 6.216-2.659 6.027-.647-.087.012-2.501-1.648-2.898 12.6-.057 1.985-.164 3.94-.296 5.714zm100.929-9.925c-2.577 1.657-5.257 2.874-7.986 3.701.149.584.388 1.168.732 1.657 1.559-.151 3.167 0 4.726.536 2.681.876 1.314 3.941-2.68 3.75-1.216-.049-2.338-.338-3.312-.734-2.679 1.905-4.576 5.117-5.016 8.722-.738 5.355 1.652 9.888 7.255 9.888 4.239 0 9.937-3.461 11.594-8.084h.05c.923-.342 1.654.341 1.072 1.85-2.243 5.751-9.113 9.063-15.736 9.063-7.942 0-12.225-5.554-11.102-12.616.773-5.017 4.19-9.111 8.521-11.105-.484-.536-.923-1.069-1.316-1.703-6.037.977-11.785.488-15.484-.584-6.529-1.9-3.365-8.184-3.365-8.184 3.508 2.632 10.573 4.677 17.684 4.777-.048-.832 0-1.706.198-2.629 1.805-8.817 11.935-11.401 16.71-9.353 3.933 1.695 4.277 6.665-2.545 11.048zm-8.23.536c2.923-.44 5.7-1.266 8.04-2.681 3.746-2.188 4.087-6.04 1.316-7.402-2.881-1.362-7.704 1.121-8.965 7.208-.202 1.025-.391 1.999-.391 2.875z"/><path opacity=".13" stroke="#bbb" stroke-width=".863" stroke-miterlimit="10" enable-background="new" d="M105.35 174.886l1.215-.067v-8.66l-1.243-.062.017-.134h5.762l-.044 2.095-.154-.017-.072-1.871h-4.008v4.16h2.788l.117-1.201.157.013v2.508l-.156-.014-.117-1.097h-2.788v4.268h4.223l.069-1.927.154.017.029 2.118h-5.957l.008-.129zm10.431-8.92l6.491 8.649v-8.457l-1.239-.062.013-.134h2.728l-.012.134-1.23.062v8.855h-.248l-6.519-8.66v8.465l1.387.067-.013.131h-2.908l.013-.131 1.272-.067v-8.66l-1.307-.062.013-.134h1.557v.003h.002v.001zm15.082 9.048h-.363l-3.555-8.855-1.037-.062.017-.134h2.779l-.018.134-1.456.062 3.449 8.622h.025l3.391-8.622-1.272-.062.013-.134h2.625l-.014.134-1.101.062-3.483 8.855zm8.872 0l.014-.131 1.315-.064v-3.737l-3.009-4.926-1.039-.063.02-.132h2.619l-.013.132-1.28.063 2.845 4.654h.028l2.947-4.654-1.204-.063.018-.132h2.487l-.013.132-1.017.063-3.136 4.95v3.713l1.233.064-.018.131h-2.797zm-19.798-17.794l.016-.104 1.074-.053v-6.93l-1.014-.05.01-.104h2.854c1.278 0 2.028.797 2.028 1.873 0 .777-.309 1.471-1.177 1.704.826.227 1.334.902 1.334 1.77 0 .98-.526 1.892-2.233 1.892h-2.892v.002zm1.296-7.065v3.32h1.799c.508 0 .798-.091 1.078-.223.351-.324.593-.688.593-1.388 0-.951-.663-1.71-1.864-1.71h-1.606zm0 3.506v3.351c.36.05.931.05 1.489.05.92 0 1.46-.215 1.864-.596.184-.312.278-.559.268-1.139-.01-1.003-.756-1.666-1.823-1.666h-1.798zm5.296 3.454l.974-.053v-6.93l-.996-.05.01-.104h4.618l-.032 1.679-.123-.014-.065-1.498h-3.205v3.331h2.233l.088-.963.126.011v2.007l-.126-.012-.085-.88h-2.233v3.417h3.384l.052-1.543.126.01.021 1.696h-4.775l.008-.104z" fill="none"/><path opacity=".13" fill="#bbb" enable-background="new" d="M124.778 73.458c3.492 0 6.468 1.23 8.926 3.697 2.457 2.467 3.683 5.443 3.683 8.933 0 3.477-1.226 6.448-3.683 8.913-2.457 2.464-5.435 3.698-8.926 3.698-3.473 0-6.441-1.23-8.91-3.698-2.46-2.465-3.693-5.436-3.693-8.913 0-3.489 1.233-6.469 3.693-8.933 2.469-2.468 5.437-3.697 8.91-3.697zm-7.367 5.257c-2.034 2.034-3.051 4.496-3.051 7.372 0 2.879 1.017 5.333 3.051 7.362 2.038 2.028 4.495 3.042 7.367 3.042 2.883 0 5.336-1.015 7.375-3.042 2.034-2.028 3.052-4.483 3.052-7.362 0-2.876-1.018-5.334-3.052-7.372-2.038-2.034-4.493-3.05-7.375-3.05-2.873-.004-5.33 1.012-7.367 3.05zm7.024-14.977c.104-.183.331-.153.511-.183.003.635-.007 1.276-.013 1.912l-.501.052c-.032-.591-.067-1.193.003-1.781zm-2.016.111c.521.182.659.879.931 1.318.199.241-.363.521-.453.248-.288-.414-.531-.859-.72-1.327l.242-.239zm4.308.11c.208-.101.356-.04.442.194-.2.509-.483.98-.823 1.405l-.348-.077c-.05-.582.452-1.045.729-1.522zm-8.25 4.938c.65-.885 1.212-1.884 1.95-2.679 2.621-.071 5.236.028 7.852.028.27.035.648-.087.792.219.624.913 1.271 1.815 1.832 2.761-.104.526-.637.856-.939 1.279-1.817 1.989-3.54 4.057-5.396 6-1.997-2.154-3.835-4.459-5.776-6.669-.198-.274-.64-.597-.315-.939zm2.775-2.015c.353.591.722 1.174 1.114 1.745.482-.588.997-1.153 1.495-1.726-.873-.007-1.741-.019-2.609-.019zm4.179.025c.495.584 1 1.163 1.485 1.751.393-.563.776-1.139 1.143-1.725-.88.003-1.751 0-2.628-.026zm-4.898.276c-.353.562-.741 1.104-1.138 1.637.748.013 1.498.013 2.245.032-.369-.556-.71-1.127-1.107-1.669zm2.583 1.678c1.009.003 2.024.03 3.034.023-.488-.604-1.007-1.183-1.505-1.778-.503.586-1.034 1.155-1.529 1.755zm4.516.042l2.234.019c-.38-.555-.746-1.117-1.14-1.669-.355.555-.724 1.105-1.094 1.65zm-8.114.669c1.362 1.566 2.681 3.168 4.068 4.722-.473-1.582-1.044-3.132-1.551-4.707-.839-.013-1.678-.025-2.517-.015zm3.286.019c.605 1.764 1.142 3.55 1.784 5.297.609-1.753 1.238-3.504 1.871-5.251-1.217-.035-2.44-.026-3.655-.046zm4.416.042l-1.697 4.778c1.401-1.59 2.813-3.166 4.218-4.755-.84-.004-1.679-.013-2.521-.023zm-3.564 115.746l.123-.083v-.053l.042-.039.044-.04h.041l.091-.133h.041c.022-.063.066-.101.124-.126l.009-.078.083-.08.117-.014.057.092.079.079.08.013c.045.066.09.132.177.164l.041.04c.05.096.116.167.211.216v.116l-.122.054v.042l-.088.045-.041.04-.079.08c-.019.076-.076.108-.133.133l-.083.125-.041.042c-.061.006-.076.048-.091.091l-.08-.073-.133-.1-.044-.043-.079-.083-.215-.251-.083-.014-.04-.04-.008-.122zm7.149 3.08v-.085l.055-.049.041-.045c.056-.018.095-.062.119-.119.066-.031.122-.072.132-.164h.043l.04-.05.091-.216h.042l.043-.201h.043v-.133h.041v-.137h.044v-.713c-.052-.016-.044-.098-.044-.167l-.041-.007c-.014-.048.031-.15-.043-.133l-.043-.081c.028-.137-.083-.137-.089-.244l-.044-.01c.013-.076-.028-.108-.079-.122-.004-.061-.035-.08-.084-.092l-.009-.07c-.095-.049-.12-.163-.247-.183l-.05-.044-.041-.082-.212-.088v-.046h-.084v-.037h-.076v-.042h-.091v-.04h-.123v-.046l-.174-.013v-.042h-.175v-.031c-.229-.017-.515-.017-.743 0l-.015.031c-.059.01-.166-.024-.17.042-.048.018-.143-.019-.136.057l-.16.041-.01.041-.084.038h-.071l-.061.083-.119.05-.045.083c-.076-.011-.107.03-.122.082h-.091v.088l-.079.083-.046.045-.132.078-.079.08v.053l-.174.119-.042.092-.041.041-.044.041-.042.044-.091.043v.049l-.042.041-.079.083-.044.045c-.053.007-.083.037-.088.088l-.044.045-.076.079-.049.04c-.053.009-.083.039-.087.093l-.045.041-.041.045-.039.041-.136.08-.044.082c-.138.003-.128.158-.25.184l-.122.164-.045.04c-.06.005-.079.042-.088.092l-.044.045-.042.045-.04.037-.133.08v.053l-.045.041-.042.046-.041.041-.091.04-.042.092-.043.041-.042.042-.04.045-.092.042v.049l-.04.041c-.061.025-.099.07-.123.126l-.042.038h-.053v.052l-.037.043-.083.08-.044.046c-.066.02-.11.063-.13.133l-.041.038-.053.042c-.088.014-.13.065-.165.136l-.041.042c-.088.034-.18.072-.215.161-.073 0-.102.047-.133.09h-.069l-.053.08-.075.044c-.047.002-.107-.017-.095.045l-.079.038c-.041.021-.136-.019-.12.053l-.095.041c-.041.014-.139-.03-.12.046-.047.013-.151-.038-.132.041-.073.01-.2-.028-.215.041l-.363.014-.013.031h-.375v-.031l-.388-.014c-.019-.066-.143-.031-.215-.041v-.041h-.164v-.046h-.133v-.041l-.334-.091v-.043h-.09v-.04h-.083l-.05-.083-.164-.05v-.043h-.08l-.041-.08-.05-.042-.123-.041v-.08c.054-.006.083-.038.088-.094l.044-.045.06-.008.022-.069h-.032l-.049.077c-.073.019-.107.069-.133.126h-.094l-.038-.083h-.073l-.05-.051-.083-.078-.05-.126-.083-.038-.041-.042-.042-.053c.007-.073-.032-.11-.083-.122l-.05-.082c-.021-.051-.021-.12-.083-.134l-.037-.079c-.003-.04.013-.104-.048-.091l-.041-.083c-.019-.038.021-.132-.05-.118-.003-.058.021-.133-.044-.133-.01-.044.034-.14-.041-.12-.016-.056.041-.188-.041-.177-.013-.082.035-.229-.041-.251v-.562c.079-.035.027-.195.041-.29h.041v-.174h.041v-.119l.044-.013.087-.325c.06.014.045-.05.048-.092h.038v-.078l.083-.053v-.079c.053-.019.083-.061.087-.127l.083-.05v-.083l.174-.133.165-.198.043-.049.087-.088.124-.04v-.042l.053-.045c.066-.002.101-.038.117-.088h.072l.063-.079.083-.041.08-.045.079-.041.205-.053.01-.042.091-.041c.044-.013.151.035.133-.045.056-.006.154.029.154-.041.063-.007.167.027.17-.042l.255-.01.013-.034c.277-.057.595.019.886 0v.034l.251.01c.006.069.11.035.177.042-.003.059.068.035.12.041v.045h.135v.041h.076v.042l.091.044.113.01.051.08h.081l.051.082h.072l.05.083.082.01.05.038.041.08h.083l.04.065-.04.067-.041.048-.215.17c-.022.063-.066.101-.124.126l-.009.078-.041.043-.082.042v.052l-.038.041-.048.046-.06.04-.073-.04-.041-.083c-.068 0-.11-.039-.129-.091h-.072l-.054-.08h-.075v-.041l-.092-.041h-.081v-.045l-.133-.014c-.014-.066-.135-.024-.202-.041v-.032c-.221-.016-.501-.016-.723 0l-.017.032c-.066.017-.188-.028-.197.041l-.37.094-.01.038c-.038.008-.11-.018-.091.046-.062.006-.111.021-.119.082l-.08.007-.177.167-.133.079v.05l-.079.032v.056l-.041.038-.083.045-.012.076-.083.053v.084l-.077.051v.075h-.041l-.01.126h-.045l-.041.212h-.041v.255h-.044v.46l.044.013c.018.066-.048.213.041.213.009.047-.032.146.041.133.003.048-.016.122.045.122.013.07.034.139.087.171v.069l.079.053c-.01.079.032.107.08.123l.043.049.054.124c.072.034.123.095.173.154l-.079.062-.014.082-.044.042c-.066.019-.107.062-.133.132l-.041.038-.12.079v.048h.028l.092-.126.041-.038c.057-.006.084-.04.094-.09l.038-.041c.066-.029.104-.073.135-.134l.063-.034.06.083h.082c.034.079.12.111.212.132v.045h.083v.041h.091v.038h.119v.049c.05.007.129-.022.123.038.066.009.17-.024.173.044l.388.011v.028l.079-.028.42-.011c.066-.049.157-.068.251-.082l.013-.044h.11l.066-.077.076-.045.083-.05.053-.044h.063l.101-.119.051-.045.126-.05.076-.124.043-.04c.054-.007.084-.039.088-.091l.044-.042.08-.083.045-.041c.053-.007.083-.035.087-.092l.044-.041c.056-.021.098-.065.123-.118l.042-.043.049-.055.045-.043.208-.173v-.044l.255-.209.123-.165.041-.044c.057-.006.084-.038.091-.088l.042-.045.042-.04.043-.042.133-.084.079-.132h.074c.047-.069.093-.142.183-.177l.08-.12.041-.044.056-.05.042-.037c.056-.025.098-.07.123-.127l.039-.037.053-.054.044-.041c.057-.025.098-.062.12-.123l.041-.04.05-.054.048-.041c.057-.022.095-.069.12-.124l.041-.04.05-.05.048-.045c.052-.022.094-.062.119-.12l.031-.049.051-.057.04-.041.083-.078.042-.043.063-.041.113.041v-.031l-.044-.01v-.083c.069 0 .104-.036.122-.093.056 0 .08-.034.091-.078h.066l.014-.05.052-.044h.06l.067-.082h.066l.065-.08.079-.041.287-.092.01-.04c.044-.015.139.031.122-.045.05-.008.126.018.12-.042.066-.007.17.028.174-.042l.247-.009.009-.035c.268-.015.593-.015.857 0v.035l.256.009c.012.07.132.031.201.042l.013.042h.117v.045h.135v.04l.202.042v.044l.255.088v.045h.088v.041l.204.091.052.08h.082l.083.122h.05l.042.079.082.015.076.08.083.087.053.125.083.037.038.052c.007.069.041.106.091.125-.01.076.028.108.083.119l.045.083.038.076c.01.087.042.154.091.188l.041.076c.014.048-.031.146.046.126.012.045-.036.139.04.118.013.054-.031.158.041.146.015.079-.035.22.042.246.016.251.016.518 0 .773-.063.034-.032.16-.042.243-.062.01-.03.112-.041.178h-.04v.119h-.046v.09h-.041l-.049.213h-.046v.082h-.039v.084l-.083.05v.068l-.08.053-.01.08-.044.053-.077.041v.079c-.065 0-.072.043-.082.08-.057.014-.083.039-.095.094l-.038.039-.079.083-.045.043-.05.047-.104.037-.019-.037h-.032l-.01.037.042.022-.05.065h-.066l-.059.082-.205.092-.011.042-.083.043-.076.043-.092.041-.082.044c-.063-.006-.125-.006-.133.05-.052.004-.125-.018-.122.042-.045.013-.139-.031-.119.041-.06.019-.186-.041-.18.044-.06.012-.165-.022-.171.042l-.41.011-.011.031h-.344v-.031l-.42-.011c-.006-.064-.106-.03-.173-.042v-.044h-.173v-.041l-.207-.042-.01-.044-.122-.007v-.045h-.079v-.041h-.079l-.055-.082h-.081v-.042c-.069 0-.111-.038-.133-.092h-.08l-.079-.122-.05-.038-.073-.013-.05-.039-.082-.125h-.05l-.045-.045-.042-.077-.083-.012-.03-.04-.042-.037-.042-.045c-.009-.05-.041-.083-.09-.088l-.039-.041-.083-.083-.042-.041-.053-.122.092-.054.083-.119.038-.046.05-.04c.083-.014.123-.067.15-.13l.228-.177.041-.079h.091l.083.079.042.042.079.079.054.056.081.076.043.045.076.133h.082l.174.215.056.042h.066l.092.122.079.01v.041h.083v.045h.082v.037h.089v.047c.049.006.126-.019.122.037.056.013.137-.017.143.045l.416.013v.028l.084-.028c.233.022.391-.031.583-.056l.021-.038c.044-.014.142.03.117-.046l.094-.037.195-.044.01-.042.08-.054.056-.041.077-.042.164.011z"/></svg>